<svg xmlns="http://www.w3.org/2000/svg" width="320" height="246" viewBox="0 0 320 246" fill="none">
<path d="M168.2 139.1H296.5C305 127 309.1 119.1 309.1 119.1C309.4 118.6 309.7 118 310 117.5H168.2V139.1Z" fill="#EFEFEF"/>
<path d="M168.2 91.9003H318.4C319 88.1003 319.2 84.3003 319.2 80.3003C319.2 76.9003 319 73.6003 318.6 70.3003H168.2V91.9003Z" fill="#EFEFEF"/>
<path d="M132.5 233.6H187.5C200.7 227.1 212.8 219.7 223.8 212H96.2002C107.2 219.7 119.3 227 132.5 233.6Z" fill="#EFEFEF"/>
<path d="M64.7002 186.4H255.3C263.2 179 270.2 171.7 276.3 164.8H43.7002C49.8002 171.7 56.8002 179 64.7002 186.4Z" fill="#EFEFEF"/>
<path d="M168.4 44.6H310.9C306.8 36.5 301.5 29.2 295 23H184.3C177.9 29.2 172.5 36.5 168.4 44.6Z" fill="#EFEFEF"/>
<path d="M184.3 23.0001H295C280.7 9.2001 261.2 0.600098 239.7 0.600098C218.1 0.700098 198.6 9.2001 184.3 23.0001Z" fill="#DB2828"/>
<path d="M168.2 45.0002V70.3002H318.6C317.5 61.2002 314.8 52.6002 310.8 44.7002H168.4C168.4 44.7002 168.3 44.9002 168.2 45.0002Z" fill="#DB2828"/>
<path d="M168.2 117.5H310C314.2 109.6 317 101 318.4 91.8999H168.2V117.5Z" fill="#DB2828"/>
<path d="M168.2 163.8H42.9001C43.2001 164.1 43.4001 164.4 43.7001 164.7H276.3C284.7 155.2 291.4 146.4 296.6 139.1H168.2V163.8Z" fill="#DB2828"/>
<path d="M96.2002 212H223.7C235.5 203.7 246 195 255.2 186.4H64.7002C74.0002 195 84.5002 203.7 96.2002 212Z" fill="#DB2828"/>
<path d="M160 245.3C169.7 241.8 178.8 237.8 187.5 233.5H132.5C141.2 237.9 150.3 241.9 160 245.3Z" fill="#DB2828"/>
<path d="M29.2002 147.1C30.4002 148.6 31.6002 150.2 32.8002 151.8L33.0002 150.8L29.2002 147.1Z" fill="#3838AF"/>
<path d="M168.2 139.1V117.5V91.9V70.3V45C163.2 55 160.3 66.3 160 78.1L163.4 78.6L158.9 82.9L160 89L154.5 86.1L149 89L150.1 82.9L145.6 78.6L151.8 77.7L154.6 72.1L157.4 77.7L160.1 78.1C159.9 69.1 158.1 60.5 155.2 52.6L154.7 52.3L149.2 55.2L150.3 49.1L145.8 44.8L151.4 44C149.3 39.9 146.8 36 144 32.3L145 38.3L139.5 35.4L134 38.3L135.1 32.2L130.6 27.9L136.8 27L137.8 25.1C135.5 22.7 133 20.5 130.5 18.4L131 21.5L125.5 18.6L120 21.5L121.1 15.4L116.6 11.1L118.9 10.8C107.5 4.6 94.5 1 80.6 1C66.9 1 54 4.50001 42.7 10.6L46.6 11.2L42.1 15.5L43.2 21.6L37.7 18.7L32.2 21.6L33 16.7C29.9 19 27 21.5 24.3 24.2L25.8 27.2L32 28.1L27.5 32.4L28.6 38.5L23.1 35.6L17.6 38.5L18.7 32.4L17.9 31.6C15.2 35.1 12.7 38.8 10.6 42.7L11.3 44.2L17.5 45.1L13 49.4L14.1 55.5L8.6 52.6L5.5 54.2C2.8 61.9 1.2 70.1 1 78.7L5.8 78L8.6 72.4L11.4 78L17.6 78.9L13.1 83.2L14.2 89.3L8.7 86.4L3.2 89.3L4.3 83.2L1.2 80.2C1.2 80.3 1.2 80.5 1.2 80.6C1.2 91.1 3.2 101 6.9 110.2L8.8 106.4L11.6 112L17.8 112.9L13.3 117.2L14.4 123.3L13.2 122.7C14.2 124.4 15.5 126.6 17.3 129.4L20.7 128.9L23.5 123.3L26.3 128.9L32.5 129.8L28 134.1L29.1 140.2L23.6 137.3L22.9 137.6C24.8 140.4 27 143.4 29.4 146.6L35.4 145.7L38.2 140.1L41 145.7L47.2 146.6L42.7 150.9L43.8 157L38.3 154.1L36.3 155.1C38.6 157.9 41.1 160.9 43.7 163.9H169V139.1H168.2ZM151.7 111.6L154.5 106L157.3 111.6L163.5 112.5L159 116.8L160.1 122.9L154.6 120L149 123L150.1 116.9L145.6 112.6L151.7 111.6ZM148.3 95.6L143.8 99.9L144.9 106L139.4 103.1L133.9 106L135 99.9L130.5 95.6L136.7 94.7L139.5 89.1L142.3 94.7L148.3 95.6ZM130.8 123L125.3 120.1L119.8 123L120.9 116.9L116.4 112.6L122.6 111.7L125.4 106.1L128.2 111.7L134.4 112.6L129.9 116.9L130.8 123ZM115.8 106L110.3 103.1L104.8 106L105.9 99.9L101.4 95.6L107.6 94.7L110.4 89.1L113.2 94.7L119.4 95.6L114.9 99.9L115.8 106ZM101.5 123L96 120.1L90.5 123L91.6 116.9L87.1 112.6L93.3 111.7L96.1 106.1L98.9 111.7L105.1 112.6L100.6 116.9L101.5 123ZM86.6 106L81.1 103.1L75.6 106L76.7 99.9L72.2 95.6L78.4 94.7L81.2 89.1L84 94.7L90.2 95.6L85.7 99.9L86.6 106ZM72.3 123L66.8 120.1L61.3 123L62.4 116.9L57.9 112.6L64.1 111.7L66.9 106.1L69.7 111.7L75.9 112.6L71.4 116.9L72.3 123ZM57.5 106L52 103.1L46.5 106L47.6 99.9L43.1 95.6L49.3 94.7L52.1 89.1L54.9 94.7L61.1 95.6L56.6 99.9L57.5 106ZM43 89.1L37.5 86.2L32 89.1L33.1 83L28.6 78.7L34.8 77.8L37.6 72.2L40.4 77.8L46.6 78.7L42.1 83L43 89.1ZM130.8 89.1L125.3 86.2L119.8 89.1L120.9 83L116.4 78.7L122.6 77.8L125.4 72.2L128.2 77.8L134.4 78.7L129.9 83L130.8 89.1ZM114.7 66L115.8 72.1L110.3 69.2L104.8 72.1L105.9 66L101.4 61.7L107.6 60.8L110.4 55.2L113.2 60.8L119.4 61.7L114.7 66ZM101.5 89.1L96 86.2L90.5 89.1L91.6 83L87.1 78.7L93.3 77.8L96.1 72.2L98.9 77.8L105.1 78.7L100.6 83L101.5 89.1ZM101.5 55.2L96 52.3L90.5 55.2L91.6 49.1L87.1 44.8L93.3 43.9L96.1 38.3L98.9 43.9L105.1 44.8L100.6 49.1L101.5 55.2ZM90 61.6L85.5 65.9L86.6 72L81.1 69.1L75.6 72L76.7 65.9L72.2 61.6L78.4 60.7L81.2 55.1L84 60.7L90 61.6ZM72.3 89.1L66.8 86.2L61.3 89.1L62.4 83L57.9 78.7L64.1 77.8L66.9 72.2L69.7 77.8L75.9 78.7L71.4 83L72.3 89.1ZM72.3 55.2L66.8 52.3L61.3 55.2L62.4 49.1L57.9 44.8L64.1 43.9L66.9 38.3L69.7 43.9L75.9 44.8L71.4 49.1L72.3 55.2ZM60.9 61.6L56.4 65.9L57.5 72L52 69.1L46.5 72L47.6 65.9L43.1 61.6L49.3 60.7L52.1 55.1L54.9 60.7L60.9 61.6ZM139.4 55.2L142.2 60.8L148.4 61.7L143.9 66L145 72.1L139.5 69.2L134 72.1L135.1 66L130.6 61.7L136.8 60.8L139.4 55.2ZM122.5 43.8L125.3 38.2L128.1 43.8L134.3 44.7L129.8 49L130.9 55.1L125.4 52.2L119.9 55.1L121 49L116.5 44.7L122.5 43.8ZM110.2 21.3L113 26.9L119.2 27.8L114.7 32.1L115.8 38.2L110.3 35.3L104.8 38.2L105.9 32.1L101.4 27.8L107.6 26.9L110.2 21.3ZM93.3 9.89999L96.1 4.3L98.9 9.89999L105.1 10.8L100.6 15.1L101.7 21.2L96.2 18.3L90.7 21.2L91.8 15.1L87.3 10.8L93.3 9.89999ZM81.1 21.3L83.9 26.9L90.1 27.8L85.6 32.1L86.7 38.2L81.2 35.3L75.7 38.2L76.8 32.1L72.3 27.8L78.5 26.9L81.1 21.3ZM64 9.89999L66.8 4.3L69.6 9.89999L75.8 10.8L71.3 15.1L72.4 21.2L66.9 18.3L61.4 21.2L62.5 15.1L58 10.8L64 9.89999ZM49.3 26.8L52.1 21.2L54.9 26.8L61.1 27.7L56.6 32L57.7 38.1L52.2 35.2L46.7 38.1L47.8 32L43.3 27.7L49.3 26.8ZM34.8 43.8L37.6 38.2L40.4 43.8L46.6 44.7L42 49L43.1 55.1L37.6 52.2L32.1 55.1L33.2 49L28.7 44.7L34.8 43.8ZM14 61.6L20.2 60.7L23 55.1L25.8 60.7L32 61.6L27.5 65.9L28.6 72L23.1 69.1L17.6 72L18.7 65.9L14 61.6ZM22.9 103.1L17.4 106L18.5 99.9L14 95.6L20.2 94.7L23 89.1L25.8 94.7L32 95.6L27.5 99.9L28.6 106L22.9 103.1ZM28.6 112.5L34.8 111.6L37.6 106L40.4 111.6L46.6 112.5L42.1 116.8L43.2 122.9L37.7 120L32 123L33.1 116.9L28.6 112.5ZM52 137.1L46.5 140L47.6 133.9L43.1 129.6L49.3 128.7L52.1 123.1L54.9 128.7L61.1 129.6L56.6 133.9L57.7 140L52 137.1ZM72.3 156.9L66.8 154L61.3 156.9L62.4 150.8L57.9 146.5L64.1 145.6L66.9 140L69.7 145.6L75.9 146.5L71.4 150.8L72.3 156.9ZM81.1 137.1L75.6 140L76.7 133.9L72.2 129.6L78.4 128.7L81.2 123.1L84 128.7L90.2 129.6L85.7 133.9L86.8 140L81.1 137.1ZM101.5 156.9L96 154L90.5 156.9L91.6 150.8L87.1 146.5L93.3 145.6L96.1 140L98.9 145.6L105.1 146.5L100.6 150.8L101.5 156.9ZM110.2 137.1L104.7 140L105.8 133.9L101.3 129.6L107.5 128.7L110.3 123.1L113.1 128.7L119.3 129.6L114.8 133.9L115.9 140L110.2 137.1ZM130.8 156.9L125.3 154L119.8 156.9L120.9 150.8L116.4 146.5L122.6 145.6L125.4 140L128.2 145.6L134.4 146.5L129.9 150.8L130.8 156.9ZM139.4 137.1L133.9 140L135 133.9L130.5 129.6L136.7 128.7L139.5 123.1L142.3 128.7L148.5 129.6L144 133.9L145.1 140L139.4 137.1ZM160 156.9L154.5 154L149 156.9L150.1 150.8L145.6 146.5L151.8 145.6L154.6 140L157.4 145.6L163.6 146.5L159.1 150.8L160 156.9Z" fill="#3838AF"/>
<path d="M37.5 18.4003L43 21.3003L41.9 15.2003L46.4 10.9003L42.5 10.3003C39.1 12.1003 35.9 14.2003 32.8 16.5003L32 21.4003L37.5 18.4003Z" fill="#EFEFEF"/>
<path d="M61.3 21.3003L66.8 18.4003L72.3 21.3003L71.2 15.1003L75.7 10.8003L69.5 9.90028L66.8 4.30029L64 9.90028L57.8 10.8003L62.3 15.1003L61.3 21.3003Z" fill="#EFEFEF"/>
<path d="M90.5001 21.3003L96.0001 18.4003L101.5 21.3003L100.5 15.1003L104.9 10.8003L98.8001 9.90028L96.0001 4.30029L93.3001 9.90028L87.1001 10.8003L91.5001 15.1003L90.5001 21.3003Z" fill="#EFEFEF"/>
<path d="M120.8 15.1003L119.7 21.2003L125.2 18.3003L130.7 21.2003L130.2 18.1003C126.6 15.2003 122.7 12.6003 118.6 10.3003L116.3 10.6003L120.8 15.1003Z" fill="#EFEFEF"/>
<path d="M17.4001 38.1999L22.9001 35.2999L28.4001 38.1999L27.3001 32.0999L31.8001 27.7999L25.6001 26.8999L24.1001 23.8999C21.8001 26.1999 19.6001 28.6999 17.5001 31.2999L18.3001 32.0999L17.4001 38.1999Z" fill="#EFEFEF"/>
<path d="M46.5001 38.2003L52.0001 35.3003L57.5001 38.2003L56.5001 32.1003L60.9001 27.7003L54.8001 26.8003L52.0001 21.3003L49.3001 26.8003L43.1001 27.7003L47.6001 32.1003L46.5001 38.2003Z" fill="#EFEFEF"/>
<path d="M76.7002 32.1003L75.6002 38.2003L81.1002 35.3003L86.6002 38.2003L85.6002 32.1003L90.0002 27.7003L83.9002 26.8003L81.1002 21.3003L78.4002 26.8003L72.2002 27.7003L76.7002 32.1003Z" fill="#EFEFEF"/>
<path d="M105.8 32.1003L104.7 38.2003L110.2 35.3003L115.8 38.2003L114.7 32.1003L119.2 27.7003L113 26.8003L110.2 21.3003L107.5 26.8003L101.3 27.7003L105.8 32.1003Z" fill="#EFEFEF"/>
<path d="M130.4 27.7003L134.9 32.0003L133.8 38.1003L139.3 35.2003L144.8 38.1003L143.8 32.1003C141.9 29.5003 139.8 27.1003 137.5 24.8003L136.5 26.7003L130.4 27.7003Z" fill="#EFEFEF"/>
<path d="M13.8002 55.1999L12.7002 49.0999L17.2002 44.7999L11.0002 43.8999L10.3002 42.3999C8.3002 46.0999 6.6002 49.8999 5.2002 53.9999L8.3002 52.3999L13.8002 55.1999Z" fill="#EFEFEF"/>
<path d="M32.0001 55.2002L37.5001 52.3002L43.0001 55.2002L42.0001 49.0002L46.4001 44.7002L40.3001 43.8002L37.5001 38.2002L34.8001 43.8002L28.6001 44.7002L33.1001 49.0002L32.0001 55.2002Z" fill="#EFEFEF"/>
<path d="M69.5 43.8002L66.8 38.2002L64 43.8002L57.8 44.7002L62.3 49.0002L61.3 55.2002L66.8 52.3002L72.3 55.2002L71.2 49.0002L75.7 44.7002L69.5 43.8002Z" fill="#EFEFEF"/>
<path d="M98.8001 43.8002L96.0001 38.2002L93.3001 43.8002L87.1001 44.7002L91.5001 49.0002L90.5001 55.2002L96.0001 52.3002L101.5 55.2002L100.5 49.0002L104.9 44.7002L98.8001 43.8002Z" fill="#EFEFEF"/>
<path d="M120.8 49.0002L119.7 55.2002L125.2 52.3002L130.8 55.2002L129.7 49.0002L134.2 44.7002L128 43.8002L125.2 38.2002L122.5 43.8002L116.3 44.7002L120.8 49.0002Z" fill="#EFEFEF"/>
<path d="M150 49.0003L148.9 55.1003L154.4 52.2003L154.9 52.5003C153.8 49.5003 152.5 46.6003 151.1 43.8003L145.5 44.6003L150 49.0003Z" fill="#EFEFEF"/>
<path d="M17.4 72.1002L22.9 69.2002L28.4 72.1002L27.4 66.0002L31.8 61.6002L25.7 60.8002L22.9 55.2002L20.1 60.8002L14 61.6002L18.4 66.0002L17.4 72.1002Z" fill="#EFEFEF"/>
<path d="M52.0001 55.2002L49.3001 60.8002L43.1001 61.6002L47.6001 66.0002L46.5001 72.1002L52.0001 69.2002L57.5001 72.1002L56.5001 66.0002L60.9001 61.6002L54.8001 60.8002L52.0001 55.2002Z" fill="#EFEFEF"/>
<path d="M81.1002 55.2002L78.4002 60.8002L72.2002 61.6002L76.7002 66.0002L75.6002 72.1002L81.1002 69.2002L86.6002 72.1002L85.6002 66.0002L90.0002 61.6002L83.9002 60.8002L81.1002 55.2002Z" fill="#EFEFEF"/>
<path d="M110.2 55.2002L107.5 60.8002L101.3 61.6002L105.8 66.0002L104.7 72.1002L110.2 69.2002L115.8 72.1002L114.7 66.0002L119.2 61.6002L113 60.8002L110.2 55.2002Z" fill="#EFEFEF"/>
<path d="M134.9 66.0002L133.9 72.1002L139.4 69.2002L144.9 72.1002L143.8 66.0002L148.3 61.6002L142.1 60.8002L139.4 55.2002L136.6 60.8002L130.4 61.6002L134.9 66.0002Z" fill="#EFEFEF"/>
<path d="M2.8001 89.1002L8.3001 86.2002L13.8001 89.1002L12.7001 83.0002L17.2001 78.7002L11.0001 77.8002L8.2001 72.2002L5.4001 77.8002L0.600098 78.5002C0.600098 79.0002 0.600098 79.5002 0.600098 80.0002L3.7001 83.0002L2.8001 89.1002Z" fill="#EFEFEF"/>
<path d="M40.3001 77.7001L37.5001 72.1001L34.8001 77.7001L28.6001 78.6001L33.1001 82.9001L32.0001 89.1001L37.5001 86.2001L43.0001 89.1001L42.0001 82.9001L46.4001 78.6001L40.3001 77.7001Z" fill="#EFEFEF"/>
<path d="M69.5 77.7001L66.8 72.1001L64 77.7001L57.8 78.6001L62.3 82.9001L61.3 89.1001L66.8 86.2001L72.3 89.1001L71.2 82.9001L75.7 78.6001L69.5 77.7001Z" fill="#EFEFEF"/>
<path d="M98.8001 77.7001L96.0001 72.1001L93.3001 77.7001L87.1001 78.6001L91.5001 82.9001L90.5001 89.1001L96.0001 86.2001L101.5 89.1001L100.5 82.9001L104.9 78.6001L98.8001 77.7001Z" fill="#EFEFEF"/>
<path d="M128 77.7001L125.2 72.1001L122.5 77.7001L116.3 78.6001L120.8 82.9001L119.7 89.1001L125.2 86.2001L130.8 89.1001L129.7 82.9001L134.2 78.6001L128 77.7001Z" fill="#EFEFEF"/>
<path d="M154.5 72.1001L151.7 77.7001L145.5 78.6001L150 82.9001L148.9 89.0001L154.4 86.1001L159.9 89.0001L158.8 82.9001L163.3 78.6001L159.9 78.1001L157.2 77.7001L154.5 72.1001Z" fill="#EFEFEF"/>
<path d="M31.8 95.6001L25.7 94.7001L22.9 89.1001L20.1 94.7001L14 95.6001L18.4 99.9001L17.4 106L22.9 103.1L28.4 106L27.4 99.9001L31.8 95.6001Z" fill="#EFEFEF"/>
<path d="M54.8001 94.7001L52.0001 89.1001L49.3001 94.7001L43.1001 95.6001L47.6001 99.9001L46.5001 106L52.0001 103.1L57.5001 106L56.5001 99.9001L60.9001 95.6001L54.8001 94.7001Z" fill="#EFEFEF"/>
<path d="M83.9002 94.7001L81.1002 89.1001L78.4002 94.7001L72.2002 95.6001L76.7002 99.9001L75.6002 106L81.1002 103.1L86.6002 106L85.6002 99.9001L90.0002 95.6001L83.9002 94.7001Z" fill="#EFEFEF"/>
<path d="M113 94.7001L110.2 89.1001L107.5 94.7001L101.3 95.6001L105.8 99.9001L104.7 106L110.2 103.1L115.8 106L114.7 99.9001L119.2 95.6001L113 94.7001Z" fill="#EFEFEF"/>
<path d="M139.4 89.1001L136.6 94.7001L130.4 95.6001L134.9 99.9001L133.9 106L139.4 103.1L144.9 106L143.8 99.9001L148.3 95.6001L142.1 94.7001L139.4 89.1001Z" fill="#EFEFEF"/>
<path d="M12.7 116.9L17.2 112.6L11 111.7L8.20004 106.1L6.30005 109.9C7.60005 113.1 9.10004 116.2 10.7 119.2C10.7 119.2 11.3 120.3 12.5 122.4L13.7 123L12.7 116.9Z" fill="#EFEFEF"/>
<path d="M32.0001 123L37.5001 120.1L43.0001 123L42.0001 116.9L46.4001 112.5L40.3001 111.6L37.5001 106L34.8001 111.6L28.6001 112.5L33.1001 116.9L32.0001 123Z" fill="#EFEFEF"/>
<path d="M69.5 111.6L66.8 106L64 111.6L57.8 112.5L62.3 116.9L61.3 123L66.8 120.1L72.3 123L71.2 116.9L75.7 112.5L69.5 111.6Z" fill="#EFEFEF"/>
<path d="M98.8001 111.6L96.0001 106L93.3001 111.6L87.1001 112.5L91.5001 116.9L90.5001 123L96.0001 120.1L101.5 123L100.5 116.9L104.9 112.5L98.8001 111.6Z" fill="#EFEFEF"/>
<path d="M128 111.6L125.2 106L122.5 111.6L116.3 112.5L120.8 116.9L119.7 123L125.2 120.1L130.8 123L129.7 116.9L134.2 112.5L128 111.6Z" fill="#EFEFEF"/>
<path d="M150 116.9L149 123L154.5 120.1L160 123L158.9 116.9L163.4 112.5L157.2 111.6L154.5 106L151.7 111.6L145.6 112.5L150 116.9Z" fill="#EFEFEF"/>
<path d="M28.4001 140L27.3001 133.9L31.8001 129.6L25.6001 128.7L22.8001 123.1L20.0001 128.7L16.6001 129.2C18.1001 131.6 20.0001 134.4 22.1001 137.5L22.8001 137.2L28.4001 140Z" fill="#EFEFEF"/>
<path d="M56.5001 133.8L60.9001 129.5L54.8001 128.6L52.0001 123L49.3001 128.6L43.1001 129.5L47.6001 133.8L46.5001 140L52.0001 137.1L57.5001 140L56.5001 133.8Z" fill="#EFEFEF"/>
<path d="M85.6002 133.8L90.0002 129.5L83.9002 128.6L81.1002 123L78.4002 128.6L72.2002 129.5L76.7002 133.8L75.6002 140L81.1002 137.1L86.6002 140L85.6002 133.8Z" fill="#EFEFEF"/>
<path d="M114.7 133.8L119.2 129.5L113 128.6L110.2 123L107.5 128.6L101.3 129.5L105.8 133.8L104.7 140L110.2 137.1L115.8 140L114.7 133.8Z" fill="#EFEFEF"/>
<path d="M143.8 133.8L148.3 129.5L142.1 128.6L139.4 123L136.6 128.6L130.4 129.5L134.9 133.8L133.9 140L139.4 137.1L144.9 140L143.8 133.8Z" fill="#EFEFEF"/>
<path d="M43.0001 156.9L41.9001 150.8L46.4001 146.5L40.2001 145.6L37.4001 140L34.6001 145.6L28.6001 146.5C28.8001 146.7 28.9001 146.9 29.1001 147.1L32.9001 150.8L32.7001 151.8C33.6001 152.9 34.4001 154 35.3001 155.1L37.3001 154.1L43.0001 156.9Z" fill="#EFEFEF"/>
<path d="M69.5 145.5L66.8 140L64 145.5L57.8 146.4L62.3 150.8L61.3 156.9L66.8 154L72.3 156.9L71.2 150.8L75.7 146.4L69.5 145.5Z" fill="#EFEFEF"/>
<path d="M98.8001 145.5L96.0001 140L93.3001 145.5L87.1001 146.4L91.5001 150.8L90.5001 156.9L96.0001 154L101.5 156.9L100.5 150.8L104.9 146.4L98.8001 145.5Z" fill="#EFEFEF"/>
<path d="M128 145.5L125.2 140L122.5 145.5L116.3 146.4L120.8 150.8L119.7 156.9L125.2 154L130.8 156.9L129.7 150.8L134.2 146.4L128 145.5Z" fill="#EFEFEF"/>
<path d="M157.2 145.5L154.5 140L151.7 145.5L145.6 146.4L150 150.8L149 156.9L154.5 154L160 156.9L158.9 150.8L163.4 146.4L157.2 145.5Z" fill="#EFEFEF"/>
</svg>