<svg width="2142" height="434" viewBox="0 0 2142 434" fill="none" xmlns="http://www.w3.org/2000/svg">
<path d="M664.734 335.044C664.53 333.229 663.686 331.822 662.203 330.825C660.72 329.815 658.854 329.31 656.604 329.31C654.993 329.31 653.599 329.566 652.423 330.077C651.247 330.576 650.333 331.266 649.681 332.148C649.042 333.018 648.722 334.009 648.722 335.121C648.722 336.054 648.94 336.859 649.374 337.537C649.822 338.214 650.403 338.783 651.119 339.244C651.848 339.691 652.628 340.068 653.459 340.375C654.29 340.669 655.089 340.912 655.856 341.104L659.691 342.101C660.944 342.408 662.229 342.823 663.545 343.347C664.862 343.871 666.083 344.562 667.208 345.418C668.333 346.275 669.241 347.336 669.931 348.602C670.634 349.867 670.986 351.382 670.986 353.146C670.986 355.371 670.411 357.346 669.26 359.072C668.122 360.798 666.467 362.159 664.293 363.156C662.133 364.153 659.518 364.652 656.45 364.652C653.51 364.652 650.966 364.185 648.818 363.252C646.67 362.319 644.989 360.996 643.775 359.283C642.56 357.557 641.889 355.511 641.761 353.146H647.706C647.821 354.565 648.281 355.748 649.087 356.694C649.905 357.627 650.947 358.324 652.212 358.784C653.491 359.232 654.891 359.455 656.412 359.455C658.087 359.455 659.576 359.193 660.88 358.669C662.197 358.132 663.232 357.391 663.987 356.445C664.741 355.486 665.118 354.367 665.118 353.089C665.118 351.925 664.786 350.973 664.121 350.232C663.469 349.49 662.58 348.876 661.455 348.391C660.343 347.905 659.084 347.477 657.678 347.106L653.037 345.84C649.892 344.984 647.399 343.724 645.558 342.062C643.73 340.401 642.816 338.202 642.816 335.466C642.816 333.203 643.43 331.228 644.657 329.54C645.884 327.853 647.546 326.543 649.643 325.609C651.739 324.663 654.104 324.19 656.738 324.19C659.397 324.19 661.743 324.657 663.776 325.59C665.821 326.523 667.432 327.808 668.608 329.445C669.784 331.068 670.398 332.935 670.449 335.044H664.734ZM678.83 329.828V324.727H709.224V329.828H696.97V364H691.064V329.828H678.83ZM751.067 344.364C751.067 348.557 750.3 352.162 748.766 355.179C747.232 358.183 745.129 360.497 742.457 362.121C739.798 363.732 736.775 364.537 733.387 364.537C729.986 364.537 726.95 363.732 724.278 362.121C721.619 360.497 719.523 358.177 717.988 355.16C716.454 352.143 715.687 348.544 715.687 344.364C715.687 340.17 716.454 336.572 717.988 333.567C719.523 330.55 721.619 328.237 724.278 326.626C726.95 325.002 729.986 324.19 733.387 324.19C736.775 324.19 739.798 325.002 742.457 326.626C745.129 328.237 747.232 330.55 748.766 333.567C750.3 336.572 751.067 340.17 751.067 344.364ZM745.199 344.364C745.199 341.168 744.682 338.477 743.646 336.29C742.623 334.092 741.217 332.43 739.427 331.305C737.65 330.167 735.637 329.598 733.387 329.598C731.124 329.598 729.104 330.167 727.327 331.305C725.55 332.43 724.144 334.092 723.108 336.29C722.086 338.477 721.574 341.168 721.574 344.364C721.574 347.56 722.086 350.257 723.108 352.456C724.144 354.642 725.55 356.304 727.327 357.442C729.104 358.567 731.124 359.129 733.387 359.129C735.637 359.129 737.65 358.567 739.427 357.442C741.217 356.304 742.623 354.642 743.646 352.456C744.682 350.257 745.199 347.56 745.199 344.364ZM761.155 364V324.727H775.153C778.209 324.727 780.74 325.283 782.747 326.396C784.754 327.508 786.256 329.029 787.254 330.96C788.251 332.877 788.749 335.038 788.749 337.441C788.749 339.857 788.244 342.031 787.234 343.961C786.237 345.879 784.729 347.4 782.709 348.525C780.702 349.637 778.177 350.193 775.134 350.193H765.508V345.169H774.597C776.528 345.169 778.094 344.837 779.295 344.172C780.497 343.494 781.379 342.574 781.942 341.411C782.504 340.247 782.786 338.924 782.786 337.441C782.786 335.958 782.504 334.641 781.942 333.491C781.379 332.34 780.491 331.439 779.276 330.787C778.075 330.135 776.489 329.809 774.521 329.809H767.08V364H761.155ZM841.965 337.134C841.594 335.971 841.096 334.929 840.469 334.009C839.856 333.075 839.121 332.283 838.264 331.631C837.407 330.966 836.43 330.461 835.33 330.116C834.243 329.771 833.048 329.598 831.744 329.598C829.532 329.598 827.538 330.167 825.761 331.305C823.984 332.442 822.578 334.111 821.542 336.31C820.52 338.496 820.008 341.174 820.008 344.344C820.008 347.528 820.526 350.219 821.562 352.418C822.597 354.616 824.016 356.285 825.819 357.423C827.621 358.56 829.673 359.129 831.974 359.129C834.109 359.129 835.969 358.695 837.555 357.825C839.153 356.956 840.386 355.729 841.256 354.143C842.138 352.545 842.579 350.666 842.579 348.506L844.113 348.793H832.876V343.903H848.312V348.371C848.312 351.67 847.609 354.533 846.203 356.962C844.809 359.379 842.879 361.245 840.412 362.562C837.957 363.879 835.145 364.537 831.974 364.537C828.42 364.537 825.301 363.719 822.616 362.082C819.944 360.446 817.861 358.126 816.365 355.121C814.869 352.104 814.121 348.525 814.121 344.383C814.121 341.251 814.556 338.438 815.425 335.945C816.295 333.452 817.515 331.337 819.088 329.598C820.673 327.847 822.533 326.511 824.668 325.59C826.816 324.657 829.162 324.19 831.706 324.19C833.828 324.19 835.803 324.504 837.631 325.13C839.472 325.756 841.108 326.645 842.54 327.795C843.985 328.946 845.18 330.314 846.126 331.899C847.072 333.472 847.711 335.217 848.044 337.134H841.965ZM892.649 344.364C892.649 348.557 891.881 352.162 890.347 355.179C888.813 358.183 886.71 360.497 884.038 362.121C881.379 363.732 878.356 364.537 874.968 364.537C871.568 364.537 868.531 363.732 865.859 362.121C863.2 360.497 861.104 358.177 859.57 355.16C858.036 352.143 857.269 348.544 857.269 344.364C857.269 340.17 858.036 336.572 859.57 333.567C861.104 330.55 863.2 328.237 865.859 326.626C868.531 325.002 871.568 324.19 874.968 324.19C878.356 324.19 881.379 325.002 884.038 326.626C886.71 328.237 888.813 330.55 890.347 333.567C891.881 336.572 892.649 340.17 892.649 344.364ZM886.781 344.364C886.781 341.168 886.263 338.477 885.227 336.29C884.205 334.092 882.798 332.43 881.009 331.305C879.232 330.167 877.218 329.598 874.968 329.598C872.705 329.598 870.685 330.167 868.908 331.305C867.131 332.43 865.725 334.092 864.69 336.29C863.667 338.477 863.156 341.168 863.156 344.364C863.156 347.56 863.667 350.257 864.69 352.456C865.725 354.642 867.131 356.304 868.908 357.442C870.685 358.567 872.705 359.129 874.968 359.129C877.218 359.129 879.232 358.567 881.009 357.442C882.798 356.304 884.205 354.642 885.227 352.456C886.263 350.257 886.781 347.56 886.781 344.364ZM908.662 324.727V364H902.736V324.727H908.662ZM951.689 324.727V364H946.243L926.281 335.197H925.916V364H919.991V324.727H925.475L945.457 353.568H945.821V324.727H951.689ZM989.611 337.134C989.24 335.971 988.741 334.929 988.115 334.009C987.501 333.075 986.766 332.283 985.91 331.631C985.053 330.966 984.075 330.461 982.976 330.116C981.889 329.771 980.694 329.598 979.39 329.598C977.178 329.598 975.184 330.167 973.407 331.305C971.63 332.442 970.224 334.111 969.188 336.31C968.165 338.496 967.654 341.174 967.654 344.344C967.654 347.528 968.172 350.219 969.207 352.418C970.243 354.616 971.662 356.285 973.464 357.423C975.267 358.56 977.319 359.129 979.62 359.129C981.755 359.129 983.615 358.695 985.2 357.825C986.798 356.956 988.032 355.729 988.901 354.143C989.783 352.545 990.224 350.666 990.224 348.506L991.758 348.793H980.521V343.903H995.958V348.371C995.958 351.67 995.255 354.533 993.849 356.962C992.455 359.379 990.525 361.245 988.057 362.562C985.603 363.879 982.79 364.537 979.62 364.537C976.066 364.537 972.947 363.719 970.262 362.082C967.59 360.446 965.506 358.126 964.011 355.121C962.515 352.104 961.767 348.525 961.767 344.383C961.767 341.251 962.202 338.438 963.071 335.945C963.94 333.452 965.161 331.337 966.734 329.598C968.319 327.847 970.179 326.511 972.314 325.59C974.462 324.657 976.807 324.19 979.351 324.19C981.474 324.19 983.449 324.504 985.277 325.13C987.118 325.756 988.754 326.645 990.186 327.795C991.631 328.946 992.826 330.314 993.772 331.899C994.718 333.472 995.357 335.217 995.69 337.134H989.611ZM1023.17 364V324.727H1037.55C1040.34 324.727 1042.65 325.187 1044.48 326.108C1046.3 327.016 1047.67 328.249 1048.58 329.809C1049.49 331.356 1049.94 333.101 1049.94 335.044C1049.94 336.68 1049.64 338.061 1049.04 339.186C1048.44 340.298 1047.63 341.193 1046.62 341.871C1045.63 342.536 1044.53 343.021 1043.33 343.328V343.712C1044.63 343.776 1045.9 344.197 1047.14 344.977C1048.39 345.744 1049.43 346.837 1050.25 348.256C1051.07 349.675 1051.47 351.401 1051.47 353.434C1051.47 355.441 1051 357.244 1050.06 358.842C1049.12 360.427 1047.68 361.686 1045.72 362.619C1043.77 363.54 1041.27 364 1038.22 364H1023.17ZM1029.1 358.918H1037.65C1040.49 358.918 1042.52 358.369 1043.75 357.269C1044.97 356.17 1045.59 354.795 1045.59 353.146C1045.59 351.906 1045.27 350.768 1044.65 349.733C1044.02 348.697 1043.13 347.873 1041.96 347.259C1040.81 346.646 1039.45 346.339 1037.86 346.339H1029.1V358.918ZM1029.1 341.717H1037.04C1038.36 341.717 1039.56 341.462 1040.62 340.95C1041.7 340.439 1042.55 339.723 1043.17 338.803C1043.81 337.869 1044.13 336.77 1044.13 335.504C1044.13 333.881 1043.56 332.519 1042.42 331.42C1041.29 330.32 1039.54 329.771 1037.19 329.771H1029.1V341.717ZM1064.52 364H1058.23L1072.36 324.727H1079.21L1093.34 364H1087.05L1075.95 331.861H1075.64L1064.52 364ZM1065.58 348.621H1085.98V353.607H1065.58V348.621ZM1133.41 324.727V364H1127.97L1108 335.197H1107.64V364H1101.71V324.727H1107.2L1127.18 353.568H1127.54V324.727H1133.41ZM1148.07 364H1141.78L1155.92 324.727H1162.76L1176.89 364H1170.6L1159.5 331.861H1159.19L1148.07 364ZM1149.13 348.621H1169.53V353.607H1149.13V348.621ZM1216.96 324.727V364H1211.52L1191.56 335.197H1191.19V364H1185.27V324.727H1190.75L1210.73 353.568H1211.1V324.727H1216.96ZM1231.63 364H1225.34L1239.47 324.727H1246.31L1260.45 364H1254.16L1243.05 331.861H1242.75L1231.63 364ZM1232.68 348.621H1253.08V353.607H1232.68V348.621ZM1289.92 335.044C1289.72 333.229 1288.87 331.822 1287.39 330.825C1285.91 329.815 1284.04 329.31 1281.79 329.31C1280.18 329.31 1278.79 329.566 1277.61 330.077C1276.43 330.576 1275.52 331.266 1274.87 332.148C1274.23 333.018 1273.91 334.009 1273.91 335.121C1273.91 336.054 1274.13 336.859 1274.56 337.537C1275.01 338.214 1275.59 338.783 1276.31 339.244C1277.04 339.691 1277.81 340.068 1278.65 340.375C1279.48 340.669 1280.28 340.912 1281.04 341.104L1284.88 342.101C1286.13 342.408 1287.42 342.823 1288.73 343.347C1290.05 343.871 1291.27 344.562 1292.4 345.418C1293.52 346.275 1294.43 347.336 1295.12 348.602C1295.82 349.867 1296.17 351.382 1296.17 353.146C1296.17 355.371 1295.6 357.346 1294.45 359.072C1293.31 360.798 1291.65 362.159 1289.48 363.156C1287.32 364.153 1284.71 364.652 1281.64 364.652C1278.7 364.652 1276.15 364.185 1274.01 363.252C1271.86 362.319 1270.18 360.996 1268.96 359.283C1267.75 357.557 1267.08 355.511 1266.95 353.146H1272.89C1273.01 354.565 1273.47 355.748 1274.27 356.694C1275.09 357.627 1276.13 358.324 1277.4 358.784C1278.68 359.232 1280.08 359.455 1281.6 359.455C1283.27 359.455 1284.76 359.193 1286.07 358.669C1287.38 358.132 1288.42 357.391 1289.17 356.445C1289.93 355.486 1290.31 354.367 1290.31 353.089C1290.31 351.925 1289.97 350.973 1289.31 350.232C1288.66 349.49 1287.77 348.876 1286.64 348.391C1285.53 347.905 1284.27 347.477 1282.86 347.106L1278.22 345.84C1275.08 344.984 1272.59 343.724 1270.75 342.062C1268.92 340.401 1268 338.202 1268 335.466C1268 333.203 1268.62 331.228 1269.84 329.54C1271.07 327.853 1272.73 326.543 1274.83 325.609C1276.93 324.663 1279.29 324.19 1281.93 324.19C1284.58 324.19 1286.93 324.657 1288.96 325.59C1291.01 326.523 1292.62 327.808 1293.8 329.445C1294.97 331.068 1295.58 332.935 1295.64 335.044H1289.92ZM1357.06 344.364C1357.06 348.557 1356.29 352.162 1354.76 355.179C1353.22 358.183 1351.12 360.497 1348.45 362.121C1345.79 363.732 1342.77 364.537 1339.38 364.537C1335.98 364.537 1332.94 363.732 1330.27 362.121C1327.61 360.497 1325.51 358.177 1323.98 355.16C1322.45 352.143 1321.68 348.544 1321.68 344.364C1321.68 340.17 1322.45 336.572 1323.98 333.567C1325.51 330.55 1327.61 328.237 1330.27 326.626C1332.94 325.002 1335.98 324.19 1339.38 324.19C1342.77 324.19 1345.79 325.002 1348.45 326.626C1351.12 328.237 1353.22 330.55 1354.76 333.567C1356.29 336.572 1357.06 340.17 1357.06 344.364ZM1351.19 344.364C1351.19 341.168 1350.67 338.477 1349.64 336.29C1348.62 334.092 1347.21 332.43 1345.42 331.305C1343.64 330.167 1341.63 329.598 1339.38 329.598C1337.12 329.598 1335.1 330.167 1333.32 331.305C1331.54 332.43 1330.14 334.092 1329.1 336.29C1328.08 338.477 1327.57 341.168 1327.57 344.364C1327.57 347.56 1328.08 350.257 1329.1 352.456C1330.14 354.642 1331.54 356.304 1333.32 357.442C1335.1 358.567 1337.12 359.129 1339.38 359.129C1341.63 359.129 1343.64 358.567 1345.42 357.442C1347.21 356.304 1348.62 354.642 1349.64 352.456C1350.67 350.257 1351.19 347.56 1351.19 344.364ZM1368.63 324.727L1379.56 356.713H1380L1390.93 324.727H1397.33L1383.2 364H1376.36L1362.22 324.727H1368.63ZM1405.71 364V324.727H1430.33V329.828H1411.63V341.794H1429.04V346.876H1411.63V358.899H1430.56V364H1405.71ZM1440.94 364V324.727H1454.94C1457.98 324.727 1460.51 325.251 1462.52 326.3C1464.54 327.348 1466.04 328.799 1467.04 330.653C1468.04 332.494 1468.54 334.622 1468.54 337.038C1468.54 339.442 1468.03 341.558 1467.02 343.386C1466.03 345.201 1464.52 346.614 1462.5 347.624C1460.49 348.634 1457.97 349.138 1454.92 349.138H1444.32V344.038H1454.39C1456.3 344.038 1457.86 343.763 1459.06 343.213C1460.28 342.663 1461.17 341.864 1461.73 340.816C1462.29 339.768 1462.57 338.509 1462.57 337.038C1462.57 335.555 1462.29 334.271 1461.71 333.184C1461.15 332.097 1460.26 331.266 1459.05 330.691C1457.84 330.103 1456.26 329.809 1454.31 329.809H1446.87V364H1440.94ZM1460.33 346.281L1470.03 364H1463.28L1453.77 346.281H1460.33ZM1495.44 364V324.727H1519.79V329.828H1501.36V341.794H1518.05V346.876H1501.36V364H1495.44ZM1535.7 324.727V364H1529.78V324.727H1535.7ZM1547.03 364V324.727H1552.96V358.899H1570.76V364H1547.03ZM1580.21 364V324.727H1604.84V329.828H1586.14V341.794H1603.55V346.876H1586.14V358.899H1605.07V364H1580.21ZM1665.06 337.499H1659.08C1658.85 336.22 1658.42 335.095 1657.79 334.124C1657.17 333.152 1656.4 332.327 1655.49 331.65C1654.58 330.972 1653.57 330.461 1652.44 330.116C1651.33 329.771 1650.15 329.598 1648.9 329.598C1646.63 329.598 1644.61 330.167 1642.82 331.305C1641.04 332.442 1639.63 334.111 1638.6 336.31C1637.58 338.509 1637.06 341.193 1637.06 344.364C1637.06 347.56 1637.58 350.257 1638.6 352.456C1639.63 354.655 1641.05 356.317 1642.84 357.442C1644.63 358.567 1646.64 359.129 1648.88 359.129C1650.12 359.129 1651.29 358.963 1652.41 358.631C1653.53 358.286 1654.55 357.781 1655.45 357.116C1656.36 356.451 1657.13 355.639 1657.76 354.68C1658.39 353.709 1658.84 352.597 1659.08 351.344L1665.06 351.363C1664.74 353.293 1664.12 355.07 1663.2 356.694C1662.29 358.305 1661.12 359.698 1659.69 360.874C1658.27 362.038 1656.65 362.939 1654.82 363.578C1652.99 364.217 1651 364.537 1648.84 364.537C1645.44 364.537 1642.41 363.732 1639.75 362.121C1637.09 360.497 1634.99 358.177 1633.46 355.16C1631.94 352.143 1631.18 348.544 1631.18 344.364C1631.18 340.17 1631.94 336.572 1633.48 333.567C1635.01 330.55 1637.11 328.237 1639.77 326.626C1642.43 325.002 1645.45 324.19 1648.84 324.19C1650.92 324.19 1652.87 324.491 1654.67 325.092C1656.48 325.68 1658.11 326.549 1659.56 327.7C1661 328.837 1662.2 330.231 1663.14 331.88C1664.09 333.516 1664.73 335.389 1665.06 337.499ZM1708.97 344.364C1708.97 348.557 1708.2 352.162 1706.66 355.179C1705.13 358.183 1703.03 360.497 1700.36 362.121C1697.7 363.732 1694.67 364.537 1691.29 364.537C1687.89 364.537 1684.85 363.732 1682.18 362.121C1679.52 360.497 1677.42 358.177 1675.89 355.16C1674.35 352.143 1673.59 348.544 1673.59 344.364C1673.59 340.17 1674.35 336.572 1675.89 333.567C1677.42 330.55 1679.52 328.237 1682.18 326.626C1684.85 325.002 1687.89 324.19 1691.29 324.19C1694.67 324.19 1697.7 325.002 1700.36 326.626C1703.03 328.237 1705.13 330.55 1706.66 333.567C1708.2 336.572 1708.97 340.17 1708.97 344.364ZM1703.1 344.364C1703.1 341.168 1702.58 338.477 1701.54 336.29C1700.52 334.092 1699.12 332.43 1697.33 331.305C1695.55 330.167 1693.54 329.598 1691.29 329.598C1689.02 329.598 1687 330.167 1685.23 331.305C1683.45 332.43 1682.04 334.092 1681.01 336.29C1679.98 338.477 1679.47 341.168 1679.47 344.364C1679.47 347.56 1679.98 350.257 1681.01 352.456C1682.04 354.642 1683.45 356.304 1685.23 357.442C1687 358.567 1689.02 359.129 1691.29 359.129C1693.54 359.129 1695.55 358.567 1697.33 357.442C1699.12 356.304 1700.52 354.642 1701.54 352.456C1702.58 350.257 1703.1 347.56 1703.1 344.364ZM1750.75 324.727V364H1745.31L1725.34 335.197H1724.98V364H1719.05V324.727H1724.54L1744.52 353.568H1744.88V324.727H1750.75ZM1765.53 324.727L1776.46 356.713H1776.9L1787.83 324.727H1794.23L1780.1 364H1773.26L1759.12 324.727H1765.53ZM1802.61 364V324.727H1827.23V329.828H1808.53V341.794H1825.94V346.876H1808.53V358.899H1827.46V364H1802.61ZM1837.84 364V324.727H1851.84C1854.88 324.727 1857.41 325.251 1859.42 326.3C1861.44 327.348 1862.94 328.799 1863.94 330.653C1864.94 332.494 1865.44 334.622 1865.44 337.038C1865.44 339.442 1864.93 341.558 1863.92 343.386C1862.93 345.201 1861.42 346.614 1859.4 347.624C1857.39 348.634 1854.87 349.138 1851.82 349.138H1841.22V344.038H1851.29C1853.2 344.038 1854.76 343.763 1855.96 343.213C1857.18 342.663 1858.07 341.864 1858.63 340.816C1859.19 339.768 1859.47 338.509 1859.47 337.038C1859.47 335.555 1859.19 334.271 1858.61 333.184C1858.05 332.097 1857.16 331.266 1855.95 330.691C1854.74 330.103 1853.16 329.809 1851.21 329.809H1843.77V364H1837.84ZM1857.23 346.281L1866.93 364H1860.18L1850.67 346.281H1857.23ZM1896.77 335.044C1896.56 333.229 1895.72 331.822 1894.24 330.825C1892.75 329.815 1890.89 329.31 1888.64 329.31C1887.03 329.31 1885.63 329.566 1884.46 330.077C1883.28 330.576 1882.37 331.266 1881.71 332.148C1881.08 333.018 1880.76 334.009 1880.76 335.121C1880.76 336.054 1880.97 336.859 1881.41 337.537C1881.85 338.214 1882.44 338.783 1883.15 339.244C1883.88 339.691 1884.66 340.068 1885.49 340.375C1886.32 340.669 1887.12 340.912 1887.89 341.104L1891.72 342.101C1892.98 342.408 1894.26 342.823 1895.58 343.347C1896.9 343.871 1898.12 344.562 1899.24 345.418C1900.37 346.275 1901.27 347.336 1901.96 348.602C1902.67 349.867 1903.02 351.382 1903.02 353.146C1903.02 355.371 1902.44 357.346 1901.29 359.072C1900.16 360.798 1898.5 362.159 1896.33 363.156C1894.17 364.153 1891.55 364.652 1888.48 364.652C1885.54 364.652 1883 364.185 1880.85 363.252C1878.7 362.319 1877.02 360.996 1875.81 359.283C1874.59 357.557 1873.92 355.511 1873.79 353.146H1879.74C1879.85 354.565 1880.31 355.748 1881.12 356.694C1881.94 357.627 1882.98 358.324 1884.25 358.784C1885.52 359.232 1886.92 359.455 1888.45 359.455C1890.12 359.455 1891.61 359.193 1892.91 358.669C1894.23 358.132 1895.27 357.391 1896.02 356.445C1896.77 355.486 1897.15 354.367 1897.15 353.089C1897.15 351.925 1896.82 350.973 1896.15 350.232C1895.5 349.49 1894.61 348.876 1893.49 348.391C1892.38 347.905 1891.12 347.477 1889.71 347.106L1885.07 345.84C1881.93 344.984 1879.43 343.724 1877.59 342.062C1875.76 340.401 1874.85 338.202 1874.85 335.466C1874.85 333.203 1875.46 331.228 1876.69 329.54C1877.92 327.853 1879.58 326.543 1881.68 325.609C1883.77 324.663 1886.14 324.19 1888.77 324.19C1891.43 324.19 1893.78 324.657 1895.81 325.59C1897.85 326.523 1899.47 327.808 1900.64 329.445C1901.82 331.068 1902.43 332.935 1902.48 335.044H1896.77ZM1918.73 324.727V364H1912.8V324.727H1918.73ZM1964.17 344.364C1964.17 348.557 1963.4 352.162 1961.87 355.179C1960.33 358.183 1958.23 360.497 1955.56 362.121C1952.9 363.732 1949.88 364.537 1946.49 364.537C1943.09 364.537 1940.05 363.732 1937.38 362.121C1934.72 360.497 1932.62 358.177 1931.09 355.16C1929.56 352.143 1928.79 348.544 1928.79 344.364C1928.79 340.17 1929.56 336.572 1931.09 333.567C1932.62 330.55 1934.72 328.237 1937.38 326.626C1940.05 325.002 1943.09 324.19 1946.49 324.19C1949.88 324.19 1952.9 325.002 1955.56 326.626C1958.23 328.237 1960.33 330.55 1961.87 333.567C1963.4 336.572 1964.17 340.17 1964.17 344.364ZM1958.3 344.364C1958.3 341.168 1957.78 338.477 1956.75 336.29C1955.72 334.092 1954.32 332.43 1952.53 331.305C1950.75 330.167 1948.74 329.598 1946.49 329.598C1944.23 329.598 1942.21 330.167 1940.43 331.305C1938.65 332.43 1937.25 334.092 1936.21 336.29C1935.19 338.477 1934.68 341.168 1934.68 344.364C1934.68 347.56 1935.19 350.257 1936.21 352.456C1937.25 354.642 1938.65 356.304 1940.43 357.442C1942.21 358.567 1944.23 359.129 1946.49 359.129C1948.74 359.129 1950.75 358.567 1952.53 357.442C1954.32 356.304 1955.72 354.642 1956.75 352.456C1957.78 350.257 1958.3 347.56 1958.3 344.364ZM2005.95 324.727V364H2000.51L1980.55 335.197H1980.18V364H1974.26V324.727H1979.74L1999.72 353.568H2000.09V324.727H2005.95Z" fill="#AFAFAF"/>
<path d="M578.2 101.2C587.933 101.2 596.467 102.6 603.8 105.4C611.267 108.067 615 111.733 615 116.4C615 121.067 613.2 126.867 609.6 133.8C606.133 140.6 603.2 144 600.8 144C600.133 144 599.333 143.667 598.4 143C597.6 142.2 595.6 141.4 592.4 140.6C589.333 139.667 586.667 139.2 584.4 139.2C576.667 139.2 570.4 141.933 565.6 147.4C560.933 152.867 558.6 161.267 558.6 172.6C558.6 183.8 561 192.133 565.8 197.6C570.733 203.067 576.933 205.8 584.4 205.8C587.467 205.8 590.867 205.4 594.6 204.6C598.467 203.667 601.2 202.4 602.8 200.8C603.067 200.533 603.6 200.4 604.4 200.4C605.2 200.4 606.667 201.933 608.8 205C611.067 207.933 613.133 211.867 615 216.8C616.867 221.6 617.8 225.333 617.8 228C617.8 233.2 613.8 237.333 605.8 240.4C597.8 243.467 588.333 245 577.4 245C559.8 245 545.333 238.8 534 226.4C522.667 214 517 196.533 517 174C517 151.333 522.8 133.533 534.4 120.6C546.133 107.667 560.733 101.2 578.2 101.2ZM692.509 245C673.843 245 658.576 238.867 646.709 226.6C634.976 214.333 629.109 196.467 629.109 173C629.109 149.4 635.043 131.533 646.909 119.4C658.909 107.267 674.309 101.2 693.109 101.2C712.043 101.2 727.309 107.2 738.909 119.2C750.509 131.067 756.309 149.133 756.309 173.4C756.309 197.533 750.376 215.533 738.509 227.4C726.643 239.133 711.309 245 692.509 245ZM692.709 139.6C686.309 139.6 680.909 142.533 676.509 148.4C672.243 154.267 670.109 162.533 670.109 173.2C670.109 183.733 672.176 191.867 676.309 197.6C680.443 203.2 685.843 206 692.509 206C699.309 206 704.776 203.133 708.909 197.4C713.176 191.667 715.309 183.467 715.309 172.8C715.309 162.133 713.109 153.933 708.709 148.2C704.443 142.467 699.109 139.6 692.709 139.6ZM881.967 238.6C881.967 241.4 875.701 242.8 863.167 242.8C850.634 242.8 843.834 241.8 842.767 239.8L809.367 177.4V239.6C809.367 242 803.167 243.2 790.767 243.2C778.501 243.2 772.367 242 772.367 239.6V105.8C772.367 103.8 777.634 102.8 788.167 102.8C792.301 102.8 797.101 103.2 802.567 104C808.167 104.667 811.567 106 812.767 108L844.767 169.6V106.8C844.767 104.267 850.967 103 863.367 103C875.767 103 881.967 104.267 881.967 106.8V238.6ZM894.255 105.6C894.255 104.933 897.121 104.333 902.855 103.8C908.721 103.133 913.521 102.8 917.255 102.8C932.055 102.8 939.788 104.733 940.455 108.6L957.655 196.6L973.855 108.6C974.655 104.733 982.921 102.8 998.655 102.8C1002.52 102.8 1007.39 103.067 1013.25 103.6C1019.12 104.133 1022.05 104.733 1022.05 105.4L986.655 237.8C986.121 239.933 982.188 241.333 974.855 242C963.521 243.2 953.188 243.467 943.855 242.8C934.655 242 929.788 240.667 929.255 238.8L894.255 105.6ZM1099.28 158.6C1101.81 158.6 1103.08 163.267 1103.08 172.6C1103.08 175.4 1102.75 178.733 1102.08 182.6C1101.55 186.333 1100.48 188.2 1098.88 188.2H1073.48V208.2H1110.28C1112.55 208.2 1114.08 211.133 1114.88 217C1115.28 219.533 1115.48 222.267 1115.48 225.2C1115.48 228 1115.08 231.667 1114.28 236.2C1113.48 240.733 1112.15 243 1110.28 243H1041.88C1036.81 243 1034.28 240.933 1034.28 236.8V108.2C1034.28 104.733 1035.81 103 1038.88 103H1110.48C1113.28 103 1114.68 108.933 1114.68 120.8C1114.68 132.533 1113.28 138.4 1110.48 138.4H1073.48V158.6H1099.28ZM1171.11 240.2C1171.11 242.333 1164.78 243.4 1152.11 243.4C1139.31 243.4 1132.91 242.4 1132.91 240.4V110C1132.91 105.333 1135.38 103 1140.31 103H1178.51C1213.58 103 1231.11 116.667 1231.11 144C1231.11 152.267 1229.51 159.8 1226.31 166.6C1223.11 173.267 1218.58 178.6 1212.71 182.6L1237.91 224.6C1236.85 227.8 1233.38 231.467 1227.51 235.6C1219.51 241.333 1212.91 244.2 1207.71 244.2C1202.51 244.2 1198.65 242.333 1196.11 238.6L1177.31 194.8H1171.11V240.2ZM1171.11 138.4V168.4H1172.11C1184.78 168.4 1191.11 163.133 1191.11 152.6C1191.11 147.8 1189.85 144.267 1187.31 142C1184.91 139.6 1180.91 138.4 1175.31 138.4H1171.11ZM1311.08 239.8C1311.08 242.467 1304.48 243.8 1291.28 243.8C1278.08 243.8 1271.48 242.467 1271.48 239.8V139.4H1247.48C1245.22 139.4 1243.62 136.333 1242.68 130.2C1242.28 127.267 1242.08 124.267 1242.08 121.2C1242.08 118.133 1242.28 115.133 1242.68 112.2C1243.62 106.067 1245.22 103 1247.48 103H1334.48C1336.75 103 1338.35 106.067 1339.28 112.2C1339.68 115.133 1339.88 118.133 1339.88 121.2C1339.88 124.267 1339.68 127.267 1339.28 130.2C1338.35 136.333 1336.75 139.4 1334.48 139.4H1311.08V239.8Z" fill="#58261D"/>
<path d="M1491.27 243.2C1479.41 243.2 1473.47 241.867 1473.47 239.2L1469.27 159L1444.87 240.2C1444.34 241.8 1439.81 242.6 1431.27 242.6C1422.74 242.6 1418.34 241.867 1418.07 240.4L1392.87 158.2L1390.07 238C1389.94 240 1387.41 241.4 1382.47 242.2C1377.54 242.867 1373.41 243.2 1370.07 243.2C1366.87 243.2 1363.74 243 1360.67 242.6C1354.27 241.667 1351.14 240 1351.27 237.6L1355.87 107.6C1355.87 104.4 1364.01 102.8 1380.27 102.8C1385.07 102.8 1390.94 103.2 1397.87 104C1404.81 104.667 1408.67 106.067 1409.47 108.2L1431.87 171.2L1451.47 108C1452.67 104.533 1461.87 102.8 1479.07 102.8C1484.01 102.8 1489.87 103.2 1496.67 104C1503.61 104.667 1507.07 105.933 1507.07 107.8L1512.87 239C1512.87 240.467 1510.27 241.533 1505.07 242.2C1499.87 242.867 1495.27 243.2 1491.27 243.2ZM1592.12 245C1573.45 245 1558.19 238.867 1546.32 226.6C1534.59 214.333 1528.72 196.467 1528.72 173C1528.72 149.4 1534.65 131.533 1546.52 119.4C1558.52 107.267 1573.92 101.2 1592.72 101.2C1611.65 101.2 1626.92 107.2 1638.52 119.2C1650.12 131.067 1655.92 149.133 1655.92 173.4C1655.92 197.533 1649.99 215.533 1638.12 227.4C1626.25 239.133 1610.92 245 1592.12 245ZM1592.32 139.6C1585.92 139.6 1580.52 142.533 1576.12 148.4C1571.85 154.267 1569.72 162.533 1569.72 173.2C1569.72 183.733 1571.79 191.867 1575.92 197.6C1580.05 203.2 1585.45 206 1592.12 206C1598.92 206 1604.39 203.133 1608.52 197.4C1612.79 191.667 1614.92 183.467 1614.92 172.8C1614.92 162.133 1612.72 153.933 1608.32 148.2C1604.05 142.467 1598.72 139.6 1592.32 139.6ZM1781.58 238.6C1781.58 241.4 1775.31 242.8 1762.78 242.8C1750.24 242.8 1743.44 241.8 1742.38 239.8L1708.98 177.4V239.6C1708.98 242 1702.78 243.2 1690.38 243.2C1678.11 243.2 1671.98 242 1671.98 239.6V105.8C1671.98 103.8 1677.24 102.8 1687.78 102.8C1691.91 102.8 1696.71 103.2 1702.18 104C1707.78 104.667 1711.18 106 1712.38 108L1744.38 169.6V106.8C1744.38 104.267 1750.58 103 1762.98 103C1775.38 103 1781.58 104.267 1781.58 106.8V238.6ZM1841.66 240.2C1841.66 242.2 1835.4 243.2 1822.86 243.2L1811.66 242.6C1805 242.067 1801.66 241.133 1801.66 239.8V105.6C1801.66 103.333 1808.33 102.2 1821.66 102.2C1835 102.2 1841.66 103.333 1841.66 105.6V156.8L1866.06 105.6C1867 103.733 1872.33 102.8 1882.06 102.8C1899.8 102.8 1909.13 104.333 1910.06 107.4C1910.06 107.667 1910 107.933 1909.86 108.2L1875.06 171L1915.46 226.8C1915.46 227.067 1914.2 228.2 1911.66 230.2C1905.53 235.533 1898.33 239.733 1890.06 242.8C1887.53 243.733 1885 244.2 1882.46 244.2L1877.66 243.8C1873.4 242.733 1870.06 240 1867.66 235.6L1844.86 192H1841.66V240.2ZM1990.69 158.6C1993.22 158.6 1994.49 163.267 1994.49 172.6C1994.49 175.4 1994.15 178.733 1993.49 182.6C1992.95 186.333 1991.89 188.2 1990.29 188.2H1964.89V208.2H2001.69C2003.95 208.2 2005.49 211.133 2006.29 217C2006.69 219.533 2006.89 222.267 2006.89 225.2C2006.89 228 2006.49 231.667 2005.69 236.2C2004.89 240.733 2003.55 243 2001.69 243H1933.29C1928.22 243 1925.69 240.933 1925.69 236.8V108.2C1925.69 104.733 1927.22 103 1930.29 103H2001.89C2004.69 103 2006.09 108.933 2006.09 120.8C2006.09 132.533 2004.69 138.4 2001.89 138.4H1964.89V158.6H1990.69ZM2093.92 109.6C2095.65 104.933 2104.19 102.6 2119.52 102.6C2123.39 102.6 2127.92 102.867 2133.12 103.4C2138.45 103.933 2140.92 104.6 2140.52 105.4L2098.92 189V237.8C2098.92 240.067 2095.25 241.667 2087.92 242.6C2084.19 243.133 2080.52 243.4 2076.92 243.4C2073.32 243.4 2069.72 243.2 2066.12 242.8C2058.79 241.867 2055.12 240.2 2055.12 237.8V190.2L2012.12 105.8C2011.59 105 2014.32 104.267 2020.32 103.6C2026.32 102.8 2031.39 102.4 2035.52 102.4C2051.92 102.4 2060.92 104.8 2062.52 109.6L2077.12 150.4L2093.92 109.6Z" fill="#ADDCE4"/>
<path fill-rule="evenodd" clip-rule="evenodd" d="M112.176 40.1096C112.176 40.1096 109.288 25.6727 116.988 5.46159C116.988 5.46159 55.0192 37.0417 64.8293 125.44C67.116 146.05 69.9675 147.961 54.2872 132.249C54.2872 132.249 44.5537 124.566 23.379 124.085C2.20539 123.604 -21.3828 203.559 35.4069 259.347V259.346C35.408 259.344 35.409 259.343 35.409 259.342L206.996 -3.05176e-05C180.376 0.216278 135.817 6.10619 112.176 40.1096Z" fill="#58261D"/>
<path fill-rule="evenodd" clip-rule="evenodd" d="M35.4062 259.346L206.996 9.15527e-05L35.4084 259.342C35.4084 259.343 35.4073 259.344 35.4062 259.346Z" fill="#58261D"/>
<path fill-rule="evenodd" clip-rule="evenodd" d="M390.612 124.085C369.437 124.566 359.703 132.249 359.703 132.249C344.023 147.961 346.875 146.051 349.161 125.44C358.971 37.0418 297.003 5.46167 297.003 5.46167C304.702 25.6728 301.816 40.1097 301.816 40.1097C278.174 6.10626 233.614 0.21637 206.995 6.10352e-05L35.4062 259.346C27.8097 275.797 17.7452 308.628 31.3234 350.026C31.3234 350.026 35.415 338.715 41.1891 334.866C41.1891 334.866 72.9921 416.675 206.995 434C340.998 416.675 372.801 334.866 372.801 334.866C378.576 338.715 382.667 350.026 382.667 350.026C396.245 308.626 386.179 275.793 378.583 259.344L378.584 259.347C435.373 203.559 411.786 123.605 390.612 124.085Z" fill="#58261D"/>
<path fill-rule="evenodd" clip-rule="evenodd" d="M383.392 140.207C367.94 140.298 354.089 155.881 346.342 166.675C345.275 222.034 357.693 239.261 357.693 239.261L372.205 247.801C403.126 206.213 407.042 140.068 383.392 140.207Z" fill="#F7D189"/>
<path fill-rule="evenodd" clip-rule="evenodd" d="M30.5983 140.207C6.94791 140.068 10.8647 206.213 41.785 247.801L56.2984 239.261C56.2984 239.261 68.7163 222.034 67.6478 166.675C59.9016 155.881 46.0513 140.298 30.5983 140.207Z" fill="#F7D189"/>
<path fill-rule="evenodd" clip-rule="evenodd" d="M321.298 254.383L272.212 188.935L206.994 181.122L141.774 188.935L92.6877 254.383L87.0677 283.465C87.0677 283.465 71.9949 305.875 79.6941 328.493C87.3944 351.112 109.53 369.879 162.467 388.647C188.233 418.442 225.753 418.442 251.519 388.647C304.455 369.879 326.592 351.112 334.292 328.493C341.991 305.875 326.918 283.465 326.918 283.465L321.298 254.383Z" fill="#F7D189"/>
<path fill-rule="evenodd" clip-rule="evenodd" d="M177.855 369.563C119.144 349.831 116.128 308.998 116.128 308.998L117.341 306.642L107.188 306.637C109.187 300.138 116.018 296.174 116.018 296.174C113.986 279.463 132.191 261.822 132.191 261.822L133.82 218.214C133.82 218.214 128.239 218.091 119.557 218.557L92.6877 254.383L87.0677 283.465C87.0677 283.465 71.9949 305.875 79.6941 328.493C87.3944 351.112 109.53 369.879 162.467 388.647C169.019 396.223 176.331 401.868 184.016 405.592C163.254 385.573 177.855 369.563 177.855 369.563Z" fill="#DBB36D"/>
<path fill-rule="evenodd" clip-rule="evenodd" d="M321.3 254.383L294.431 218.557C285.748 218.091 280.168 218.214 280.168 218.214L281.798 261.822C281.798 261.822 300.002 279.463 297.971 296.174C297.971 296.174 304.801 300.138 306.8 306.637L296.647 306.642L297.86 308.998C297.86 308.998 294.844 349.831 236.134 369.563C236.134 369.563 250.733 385.573 229.973 405.592C237.658 401.869 244.969 396.223 251.521 388.647C304.457 369.879 326.593 351.112 334.294 328.493C341.993 305.875 326.92 283.465 326.92 283.465L321.3 254.383Z" fill="#DBB36D"/>
<path fill-rule="evenodd" clip-rule="evenodd" d="M338.626 117.426C329.859 113.765 320.652 111.055 311.337 109.207C307.262 108.397 303.117 107.677 298.973 107.346L297.875 107.26L296.805 107.523C287.466 109.831 277.918 111.324 268.365 112.4C248.099 114.683 227.545 115.172 207.169 114.648L206.995 114.643L206.822 114.648C186.444 115.172 165.89 114.683 145.625 112.4C136.071 111.324 126.524 109.831 117.184 107.523L116.115 107.26L115.017 107.346C110.872 107.677 106.728 108.397 102.652 109.207C93.3385 111.055 84.1305 113.765 75.3639 117.426C50.8427 127.665 30.9878 145.067 24.7373 171.751C21.9939 183.466 21.959 195.708 23.9736 207.541C27.5747 228.703 37.8883 249.955 51.6533 266.371C56.0978 271.672 61.2208 276.761 66.7163 280.964C73.9982 286.534 83.5656 291.713 93.0468 290.195C103.214 288.57 115.288 277.349 122.777 270.513C134.506 259.807 145.89 248.68 158.458 238.936C172.268 228.231 189.164 217.79 206.995 216.454C224.826 217.79 241.723 228.231 255.532 238.936C268.099 248.68 279.484 259.807 291.212 270.513C298.702 277.349 310.776 288.57 320.943 290.195C330.424 291.713 339.991 286.534 347.273 280.964C352.77 276.761 357.892 271.672 362.336 266.371C376.101 249.955 386.415 228.703 390.017 207.541C390.619 204.001 391.041 200.429 391.261 196.845C391.778 188.442 391.173 179.955 389.252 171.751C383.002 145.068 363.147 127.665 338.626 117.426Z" fill="#58261D"/>
<path fill-rule="evenodd" clip-rule="evenodd" d="M298.434 114.106C267.608 121.729 227.843 121.958 206.996 121.427C186.148 121.958 146.382 121.729 115.558 114.106C115.558 114.106 43.8532 119.88 31.3402 173.297C18.8284 226.715 67.9144 287.35 91.9756 283.5C113.768 280.013 156.874 212.981 206.996 209.656C257.117 212.981 300.223 280.013 322.015 283.5C346.076 287.35 395.162 226.715 382.651 173.297C370.138 119.88 298.434 114.106 298.434 114.106Z" fill="#ADDCE4"/>
<path fill-rule="evenodd" clip-rule="evenodd" d="M331.512 135.554C322.209 131.625 309.79 128.083 299.34 126.938C270.42 133.743 236.594 134.858 206.995 134.118C177.394 134.858 143.569 133.743 114.648 126.938C104.2 128.083 91.7802 131.625 82.4771 135.554C64.0764 143.323 48.4398 155.922 43.6927 176.191C42.2013 182.557 41.7589 189.13 42.1599 195.649C42.3379 198.54 42.6799 201.42 43.165 204.275C46.1837 222.01 55.0333 240.104 66.5706 253.864C70.9059 259.034 76.2572 264.358 82.0204 267.929C83.598 268.907 88.0021 271.288 89.9676 270.973C94.1958 270.229 106.522 258.994 109.795 256.004C121.907 244.94 133.53 233.629 146.529 223.551C163.773 210.182 183.912 198.473 206.155 196.998L206.995 196.942L207.834 196.998C230.078 198.473 250.216 210.182 267.46 223.551C280.459 233.629 292.082 244.94 304.194 256.004C307.467 258.994 319.793 270.229 324.018 270.973C325.987 271.288 330.391 268.907 331.968 267.929C337.732 264.358 343.083 259.034 347.418 253.864C358.955 240.104 367.805 222.01 370.824 204.275C372.404 194.991 372.452 185.389 370.296 176.191C365.549 155.922 349.912 143.323 331.512 135.554Z" fill="#79BBC2"/>
<path fill-rule="evenodd" clip-rule="evenodd" d="M328.829 141.908C320.089 138.217 309.286 135.119 299.732 133.928C270.131 140.719 237.248 141.767 206.996 141.018C176.742 141.767 143.859 140.719 114.258 133.928C104.706 135.119 93.9015 138.217 85.1611 141.908C68.8515 148.795 54.6254 159.762 50.4093 177.763C49.072 183.472 48.6863 189.381 49.0447 195.227C49.2074 197.871 49.521 200.506 49.9657 203.118C52.7812 219.66 61.1021 236.605 71.8571 249.431C75.7346 254.055 80.5036 258.874 85.6549 262.065C86.4558 262.562 88.0465 263.445 89.2177 263.896C93.2591 261.74 102.276 253.531 105.144 250.912C117.355 239.756 129.212 228.249 142.304 218.099C160.709 203.83 181.977 191.682 205.701 190.115L206.996 190.028L208.289 190.115C232.013 191.682 253.282 203.83 271.688 218.099C284.779 228.249 296.635 239.756 308.846 250.912C311.714 253.531 320.731 261.74 324.771 263.894C325.944 263.445 327.534 262.562 328.335 262.065C333.487 258.874 338.256 254.055 342.133 249.431C352.888 236.605 361.209 219.66 364.025 203.118C365.449 194.747 365.525 186.059 363.581 177.763C359.365 159.762 345.139 148.795 328.829 141.908Z" fill="#F0F9E2"/>
<path fill-rule="evenodd" clip-rule="evenodd" d="M236.14 246.195C229.522 245.593 215.688 265.083 215.688 265.083C235.395 262.06 242.757 246.797 236.14 246.195Z" fill="#58261D"/>
<path fill-rule="evenodd" clip-rule="evenodd" d="M215.925 229.476C212.749 230.666 209.52 230.949 206.994 230.914C204.467 230.949 201.239 230.666 198.063 229.476C191.326 226.949 165.096 215.398 158.359 244.153C158.359 244.153 163.412 258.108 180.376 263.883C180.376 263.883 166.3 250.169 167.021 243.191C167.021 243.191 170.03 233.205 181.339 234.047C190.236 234.709 198.612 238.201 206.994 239.133C215.376 238.201 223.752 234.709 232.649 234.047C243.958 233.205 246.966 243.191 246.966 243.191C247.688 250.169 233.612 263.883 233.612 263.883C250.575 258.108 255.628 244.153 255.628 244.153C248.891 215.398 222.662 226.949 215.925 229.476Z" fill="#58261D"/>
<path fill-rule="evenodd" clip-rule="evenodd" d="M177.848 246.195C171.231 246.797 178.593 262.06 198.3 265.083C198.3 265.083 184.465 245.593 177.848 246.195Z" fill="#58261D"/>
<path fill-rule="evenodd" clip-rule="evenodd" d="M278.248 301.419C288.836 301.419 291.603 305.389 291.603 305.389C283.701 352.169 130.287 352.169 122.385 305.389C122.385 305.389 125.151 301.419 135.739 301.419C103.737 293.238 102.414 318.263 102.414 318.263C108.068 308.639 116.129 308.998 116.129 308.998C137.95 360.455 276.037 360.455 297.859 308.998C297.859 308.998 305.919 308.639 311.574 318.263C311.574 318.263 310.25 293.238 278.248 301.419Z" fill="#58261D"/>
<path fill-rule="evenodd" clip-rule="evenodd" d="M69.582 235.838C71.7606 239.234 74.1227 242.455 76.6213 245.436C80.0596 249.536 84.2834 253.88 88.8459 256.728C90.4224 255.552 92.0383 254.155 93.2576 253.124C95.8721 250.915 98.4232 248.628 100.949 246.32L101.609 245.718L158.914 146.461C147.034 145.66 135.205 144.313 123.644 142.202L69.582 235.838Z" fill="white"/>
<path fill-rule="evenodd" clip-rule="evenodd" d="M316.968 144.16L276.613 214.056C285.354 220.918 293.576 228.368 301.734 235.895L345.804 159.561C340.312 154.495 333.526 150.642 326.411 147.636C323.418 146.373 320.235 145.199 316.968 144.16Z" fill="white"/>
<path fill-rule="evenodd" clip-rule="evenodd" d="M206.995 147.237C200.514 147.397 193.96 147.477 187.37 147.441L156.699 200.566C171.52 191.584 187.732 185.07 205.29 183.91L206.995 183.797L208.698 183.91C214.495 184.292 220.146 185.26 225.648 186.707L248.666 146.84C234.681 147.558 220.677 147.574 206.995 147.237Z" fill="white"/>
<path fill-rule="evenodd" clip-rule="evenodd" d="M186.75 271.149C186.75 271.149 200.224 291.361 198.54 319.995C198.54 319.995 202.284 321.866 206.996 321.83C211.707 321.866 215.451 319.995 215.451 319.995C213.768 291.361 227.242 271.149 227.242 271.149C210.794 277.546 203.197 277.546 186.75 271.149Z" fill="#DBB36D"/>
<path fill-rule="evenodd" clip-rule="evenodd" d="M211.359 10.7813C211.359 10.7813 275.216 46.299 276.285 111.402C283.182 110.435 290.047 109.192 296.802 107.523L297.872 107.26L298.97 107.346C302.112 107.598 305.254 108.072 308.367 108.64C303.507 79.5737 284.567 25.9754 211.359 10.7813Z" fill="#8C5B3D"/>
<path fill-rule="evenodd" clip-rule="evenodd" d="M362.334 266.371C357.89 271.672 352.768 276.761 347.271 280.964C345.012 282.693 342.532 284.383 339.903 285.848C357.885 345.545 312.457 385.801 312.457 385.801C369.243 354.281 363.349 296.292 363.349 296.292C368.763 299.9 372.614 309.406 372.614 309.406C372.614 290.231 367.383 275.319 362.751 265.87L362.334 266.371Z" fill="#8C5B3D"/>
</svg>
