<svg width="1944" height="272" viewBox="0 0 1944 272" fill="none" xmlns="http://www.w3.org/2000/svg">
<path d="M380.2 65.2C389.933 65.2 398.467 66.6 405.8 69.4C413.267 72.0667 417 75.7333 417 80.4C417 85.0667 415.2 90.8667 411.6 97.8C408.133 104.6 405.2 108 402.8 108C402.133 108 401.333 107.667 400.4 107C399.6 106.2 397.6 105.4 394.4 104.6C391.333 103.667 388.667 103.2 386.4 103.2C378.667 103.2 372.4 105.933 367.6 111.4C362.933 116.867 360.6 125.267 360.6 136.6C360.6 147.8 363 156.133 367.8 161.6C372.733 167.067 378.933 169.8 386.4 169.8C389.467 169.8 392.867 169.4 396.6 168.6C400.467 167.667 403.2 166.4 404.8 164.8C405.067 164.533 405.6 164.4 406.4 164.4C407.2 164.4 408.667 165.933 410.8 169C413.067 171.933 415.133 175.867 417 180.8C418.867 185.6 419.8 189.333 419.8 192C419.8 197.2 415.8 201.333 407.8 204.4C399.8 207.467 390.333 209 379.4 209C361.8 209 347.333 202.8 336 190.4C324.667 178 319 160.533 319 138C319 115.333 324.8 97.5333 336.4 84.6C348.133 71.6667 362.733 65.2 380.2 65.2ZM494.509 209C475.843 209 460.576 202.867 448.709 190.6C436.976 178.333 431.109 160.467 431.109 137C431.109 113.4 437.043 95.5333 448.909 83.4C460.909 71.2667 476.309 65.2 495.109 65.2C514.043 65.2 529.309 71.2 540.909 83.2C552.509 95.0667 558.309 113.133 558.309 137.4C558.309 161.533 552.376 179.533 540.509 191.4C528.643 203.133 513.309 209 494.509 209ZM494.709 103.6C488.309 103.6 482.909 106.533 478.509 112.4C474.243 118.267 472.109 126.533 472.109 137.2C472.109 147.733 474.176 155.867 478.309 161.6C482.443 167.2 487.843 170 494.509 170C501.309 170 506.776 167.133 510.909 161.4C515.176 155.667 517.309 147.467 517.309 136.8C517.309 126.133 515.109 117.933 510.709 112.2C506.443 106.467 501.109 103.6 494.709 103.6ZM683.967 202.6C683.967 205.4 677.701 206.8 665.167 206.8C652.634 206.8 645.834 205.8 644.767 203.8L611.367 141.4V203.6C611.367 206 605.167 207.2 592.767 207.2C580.501 207.2 574.367 206 574.367 203.6V69.8C574.367 67.8 579.634 66.8 590.167 66.8C594.301 66.8 599.101 67.2 604.567 68C610.167 68.6667 613.567 70 614.767 72L646.767 133.6V70.8C646.767 68.2667 652.967 67 665.367 67C677.767 67 683.967 68.2667 683.967 70.8V202.6ZM696.255 69.6C696.255 68.9333 699.121 68.3333 704.855 67.8C710.721 67.1333 715.521 66.8 719.255 66.8C734.055 66.8 741.788 68.7333 742.455 72.6L759.655 160.6L775.855 72.6C776.655 68.7333 784.921 66.8 800.655 66.8C804.521 66.8 809.388 67.0667 815.255 67.6C821.121 68.1333 824.055 68.7333 824.055 69.4L788.655 201.8C788.121 203.933 784.188 205.333 776.855 206C765.521 207.2 755.188 207.467 745.855 206.8C736.655 206 731.788 204.667 731.255 202.8L696.255 69.6ZM901.281 122.6C903.815 122.6 905.081 127.267 905.081 136.6C905.081 139.4 904.748 142.733 904.081 146.6C903.548 150.333 902.481 152.2 900.881 152.2H875.481V172.2H912.281C914.548 172.2 916.081 175.133 916.881 181C917.281 183.533 917.481 186.267 917.481 189.2C917.481 192 917.081 195.667 916.281 200.2C915.481 204.733 914.148 207 912.281 207H843.881C838.815 207 836.281 204.933 836.281 200.8V72.2C836.281 68.7333 837.815 67 840.881 67H912.481C915.281 67 916.681 72.9333 916.681 84.8C916.681 96.5333 915.281 102.4 912.481 102.4H875.481V122.6H901.281ZM973.114 204.2C973.114 206.333 966.781 207.4 954.114 207.4C941.314 207.4 934.914 206.4 934.914 204.4V74C934.914 69.3333 937.381 67 942.314 67H980.514C1015.58 67 1033.11 80.6667 1033.11 108C1033.11 116.267 1031.51 123.8 1028.31 130.6C1025.11 137.267 1020.58 142.6 1014.71 146.6L1039.91 188.6C1038.85 191.8 1035.38 195.467 1029.51 199.6C1021.51 205.333 1014.91 208.2 1009.71 208.2C1004.51 208.2 1000.65 206.333 998.114 202.6L979.314 158.8H973.114V204.2ZM973.114 102.4V132.4H974.114C986.781 132.4 993.114 127.133 993.114 116.6C993.114 111.8 991.847 108.267 989.314 106C986.914 103.6 982.914 102.4 977.314 102.4H973.114ZM1113.08 203.8C1113.08 206.467 1106.48 207.8 1093.28 207.8C1080.08 207.8 1073.48 206.467 1073.48 203.8V103.4H1049.48C1047.22 103.4 1045.62 100.333 1044.68 94.2C1044.28 91.2667 1044.08 88.2667 1044.08 85.2C1044.08 82.1333 1044.28 79.1333 1044.68 76.2C1045.62 70.0667 1047.22 67 1049.48 67H1136.48C1138.75 67 1140.35 70.0667 1141.28 76.2C1141.68 79.1333 1141.88 82.1333 1141.88 85.2C1141.88 88.2667 1141.68 91.2667 1141.28 94.2C1140.35 100.333 1138.75 103.4 1136.48 103.4H1113.08V203.8Z" fill="#58261D"/>
<path d="M1293.27 207.2C1281.41 207.2 1275.47 205.867 1275.47 203.2L1271.27 123L1246.87 204.2C1246.34 205.8 1241.81 206.6 1233.27 206.6C1224.74 206.6 1220.34 205.867 1220.07 204.4L1194.87 122.2L1192.07 202C1191.94 204 1189.41 205.4 1184.47 206.2C1179.54 206.867 1175.41 207.2 1172.07 207.2C1168.87 207.2 1165.74 207 1162.67 206.6C1156.27 205.667 1153.14 204 1153.27 201.6L1157.87 71.6C1157.87 68.4 1166.01 66.8 1182.27 66.8C1187.07 66.8 1192.94 67.2 1199.87 68C1206.81 68.6667 1210.67 70.0667 1211.47 72.2L1233.87 135.2L1253.47 72C1254.67 68.5333 1263.87 66.8 1281.07 66.8C1286.01 66.8 1291.87 67.2 1298.67 68C1305.61 68.6667 1309.07 69.9333 1309.07 71.8L1314.87 203C1314.87 204.467 1312.27 205.533 1307.07 206.2C1301.87 206.867 1297.27 207.2 1293.27 207.2ZM1394.12 209C1375.45 209 1360.19 202.867 1348.32 190.6C1336.59 178.333 1330.72 160.467 1330.72 137C1330.72 113.4 1336.65 95.5333 1348.52 83.4C1360.52 71.2667 1375.92 65.2 1394.72 65.2C1413.65 65.2 1428.92 71.2 1440.52 83.2C1452.12 95.0667 1457.92 113.133 1457.92 137.4C1457.92 161.533 1451.99 179.533 1440.12 191.4C1428.25 203.133 1412.92 209 1394.12 209ZM1394.32 103.6C1387.92 103.6 1382.52 106.533 1378.12 112.4C1373.85 118.267 1371.72 126.533 1371.72 137.2C1371.72 147.733 1373.79 155.867 1377.92 161.6C1382.05 167.2 1387.45 170 1394.12 170C1400.92 170 1406.39 167.133 1410.52 161.4C1414.79 155.667 1416.92 147.467 1416.92 136.8C1416.92 126.133 1414.72 117.933 1410.32 112.2C1406.05 106.467 1400.72 103.6 1394.32 103.6ZM1583.58 202.6C1583.58 205.4 1577.31 206.8 1564.78 206.8C1552.24 206.8 1545.44 205.8 1544.38 203.8L1510.98 141.4V203.6C1510.98 206 1504.78 207.2 1492.38 207.2C1480.11 207.2 1473.98 206 1473.98 203.6V69.8C1473.98 67.8 1479.24 66.8 1489.78 66.8C1493.91 66.8 1498.71 67.2 1504.18 68C1509.78 68.6667 1513.18 70 1514.38 72L1546.38 133.6V70.8C1546.38 68.2667 1552.58 67 1564.98 67C1577.38 67 1583.58 68.2667 1583.58 70.8V202.6ZM1643.66 204.2C1643.66 206.2 1637.4 207.2 1624.86 207.2L1613.66 206.6C1607 206.067 1603.66 205.133 1603.66 203.8V69.6C1603.66 67.3333 1610.33 66.2 1623.66 66.2C1637 66.2 1643.66 67.3333 1643.66 69.6V120.8L1668.06 69.6C1669 67.7333 1674.33 66.8 1684.06 66.8C1701.8 66.8 1711.13 68.3333 1712.06 71.4C1712.06 71.6667 1712 71.9333 1711.86 72.2L1677.06 135L1717.46 190.8C1717.46 191.067 1716.2 192.2 1713.66 194.2C1707.53 199.533 1700.33 203.733 1692.06 206.8C1689.53 207.733 1687 208.2 1684.46 208.2L1679.66 207.8C1675.4 206.733 1672.06 204 1669.66 199.6L1646.86 156H1643.66V204.2ZM1792.69 122.6C1795.22 122.6 1796.49 127.267 1796.49 136.6C1796.49 139.4 1796.15 142.733 1795.49 146.6C1794.95 150.333 1793.89 152.2 1792.29 152.2H1766.89V172.2H1803.69C1805.95 172.2 1807.49 175.133 1808.29 181C1808.69 183.533 1808.89 186.267 1808.89 189.2C1808.89 192 1808.49 195.667 1807.69 200.2C1806.89 204.733 1805.55 207 1803.69 207H1735.29C1730.22 207 1727.69 204.933 1727.69 200.8V72.2C1727.69 68.7333 1729.22 67 1732.29 67H1803.89C1806.69 67 1808.09 72.9333 1808.09 84.8C1808.09 96.5333 1806.69 102.4 1803.89 102.4H1766.89V122.6H1792.69ZM1895.92 73.6C1897.65 68.9333 1906.19 66.6 1921.52 66.6C1925.39 66.6 1929.92 66.8667 1935.12 67.4C1940.45 67.9333 1942.92 68.6 1942.52 69.4L1900.92 153V201.8C1900.92 204.067 1897.25 205.667 1889.92 206.6C1886.19 207.133 1882.52 207.4 1878.92 207.4C1875.32 207.4 1871.72 207.2 1868.12 206.8C1860.79 205.867 1857.12 204.2 1857.12 201.8V154.2L1814.12 69.8C1813.59 69 1816.32 68.2667 1822.32 67.6C1828.32 66.8 1833.39 66.4 1837.52 66.4C1853.92 66.4 1862.92 68.8 1864.52 73.6L1879.12 114.4L1895.92 73.6Z" fill="#ADDCE4"/>
<path fill-rule="evenodd" clip-rule="evenodd" d="M70.3038 25.1378C70.3038 25.1378 68.4941 16.0898 73.3194 3.42295C73.3194 3.42295 34.4821 23.2151 40.6303 78.6167C42.0635 91.5335 43.8506 92.7311 34.0233 82.884C34.0233 82.884 27.9231 78.0689 14.6523 77.7677C1.38218 77.4664 -13.4012 127.576 22.1905 162.54V162.539C22.1912 162.538 22.1918 162.537 22.1918 162.537L129.73 -7.16239e-06C113.047 0.13557 85.1201 3.82693 70.3038 25.1378Z" fill="#58261D"/>
<path fill-rule="evenodd" clip-rule="evenodd" d="M22.1914 162.539L129.731 7.81992e-06L22.1928 162.537C22.1928 162.537 22.1921 162.538 22.1914 162.539Z" fill="#58261D"/>
<path fill-rule="evenodd" clip-rule="evenodd" d="M244.807 77.7677C231.536 78.069 225.436 82.884 225.436 82.884C215.608 92.7311 217.395 91.5342 218.829 78.6168C224.977 23.2151 186.14 3.42298 186.14 3.42298C190.965 16.0898 189.156 25.1379 189.156 25.1379C174.339 3.82696 146.412 0.135602 129.729 2.56366e-05L22.1895 162.54C17.4286 172.85 11.1208 193.426 19.6307 219.371C19.6307 219.371 22.195 212.283 25.8138 209.87C25.8138 209.87 45.7456 261.142 129.729 272C213.712 261.142 233.644 209.87 233.644 209.87C237.264 212.283 239.827 219.371 239.827 219.371C248.337 193.424 242.029 172.847 237.268 162.538L237.268 162.54C272.86 127.576 258.077 77.4664 244.807 77.7677Z" fill="#58261D"/>
<path fill-rule="evenodd" clip-rule="evenodd" d="M240.284 87.8716C230.6 87.9284 221.919 97.6948 217.064 104.46C216.395 139.155 224.178 149.951 224.178 149.951L233.273 155.304C252.652 129.24 255.107 87.7847 240.284 87.8716Z" fill="#F7D189"/>
<path fill-rule="evenodd" clip-rule="evenodd" d="M19.1786 87.8716C4.35627 87.7847 6.81104 129.24 26.1896 155.304L35.2856 149.951C35.2856 149.951 43.0683 139.155 42.3986 104.46C37.5439 97.6948 28.8635 87.9284 19.1786 87.8716Z" fill="#F7D189"/>
<path fill-rule="evenodd" clip-rule="evenodd" d="M201.367 159.429L170.603 118.411L129.729 113.514L88.854 118.411L58.0904 159.429L54.5681 177.656C54.5681 177.656 45.1216 191.7 49.9469 205.875C54.7728 220.051 68.6462 231.814 101.823 243.576C117.971 262.249 141.486 262.249 157.635 243.576C190.811 231.814 204.684 220.051 209.51 205.875C214.336 191.7 204.889 177.656 204.889 177.656L201.367 159.429Z" fill="#F7D189"/>
<path fill-rule="evenodd" clip-rule="evenodd" d="M111.467 231.615C74.6711 219.249 72.7813 193.658 72.7813 193.658L73.5413 192.181L67.1781 192.178C68.4312 188.105 72.7121 185.62 72.7121 185.62C71.4385 175.147 82.8482 164.091 82.8482 164.091L83.8691 136.761C83.8691 136.761 80.3715 136.684 74.93 136.976L58.0904 159.429L54.5681 177.656C54.5681 177.656 45.1216 191.7 49.9469 205.875C54.7729 220.051 68.6462 231.814 101.823 243.576C105.929 248.324 110.512 251.862 115.328 254.196C102.316 241.649 111.467 231.615 111.467 231.615Z" fill="#DBB36D"/>
<path fill-rule="evenodd" clip-rule="evenodd" d="M201.366 159.429L184.527 136.976C179.085 136.684 175.588 136.761 175.588 136.761L176.609 164.091C176.609 164.091 188.018 175.147 186.745 185.62C186.745 185.62 191.026 188.105 192.279 192.178L185.915 192.181L186.676 193.658C186.676 193.658 184.786 219.249 147.99 231.615C147.99 231.615 157.14 241.649 144.129 254.196C148.945 251.863 153.528 248.324 157.634 243.576C190.81 231.814 204.684 220.051 209.51 205.875C214.335 191.7 204.889 177.656 204.889 177.656L201.366 159.429Z" fill="#DBB36D"/>
<path fill-rule="evenodd" clip-rule="evenodd" d="M212.225 73.5942C206.731 71.2997 200.96 69.6016 195.122 68.443C192.568 67.9356 189.97 67.4844 187.373 67.2769L186.685 67.2228L186.015 67.3879C180.162 68.834 174.178 69.77 168.19 70.4445C155.489 71.8749 142.608 72.1817 129.837 71.853L129.728 71.8502L129.62 71.853C116.849 72.1817 103.967 71.8749 91.2657 70.4445C85.2784 69.77 79.2945 68.834 73.4414 67.3879L72.7711 67.2228L72.0829 67.2769C69.4851 67.4844 66.8878 67.9356 64.3338 68.443C58.4965 69.6016 52.7255 71.2997 47.2313 73.5942C31.8631 80.0115 19.4195 90.9173 15.5022 107.641C13.7828 114.984 13.7609 122.656 15.0236 130.072C17.2804 143.335 23.7443 156.654 32.3712 166.942C35.1567 170.265 38.3674 173.454 41.8116 176.088C46.3754 179.579 52.3715 182.825 58.3136 181.874C64.6858 180.855 72.2527 173.823 76.9466 169.538C84.2972 162.828 91.4321 155.854 99.3085 149.748C107.964 143.039 118.553 136.495 129.728 135.658C140.903 136.495 151.493 143.039 160.148 149.748C168.024 155.854 175.159 162.828 182.51 169.538C187.203 173.823 194.77 180.855 201.142 181.874C207.085 182.825 213.081 179.579 217.645 176.088C221.089 173.454 224.299 170.265 227.085 166.942C235.712 156.654 242.176 143.335 244.433 130.072C244.811 127.853 245.075 125.615 245.213 123.368C245.537 118.102 245.158 112.783 243.954 107.641C240.037 90.918 227.593 80.0115 212.225 73.5942Z" fill="#58261D"/>
<path fill-rule="evenodd" clip-rule="evenodd" d="M187.036 71.5134C167.717 76.2907 142.795 76.4345 129.73 76.1017C116.664 76.4345 91.7416 76.2907 72.4232 71.5134C72.4232 71.5134 27.4836 75.1322 19.6414 108.61C11.7999 142.089 42.5635 180.091 57.6433 177.678C71.301 175.492 98.317 133.481 129.73 131.397C161.142 133.481 188.158 175.492 201.816 177.678C216.895 180.091 247.659 142.089 239.817 108.61C231.975 75.1322 187.036 71.5134 187.036 71.5134Z" fill="#ADDCE4"/>
<path fill-rule="evenodd" clip-rule="evenodd" d="M207.769 84.9553C201.938 82.493 194.155 80.2731 187.606 79.5555C169.481 83.8207 148.281 84.5192 129.731 84.0556C111.179 84.5192 89.98 83.8207 71.8544 79.5555C65.3064 80.2731 57.5223 82.493 51.6918 84.9553C40.1596 89.8245 30.3597 97.7208 27.3845 110.424C26.4499 114.414 26.1726 118.533 26.4239 122.619C26.5355 124.431 26.7498 126.236 27.0538 128.025C28.9457 139.14 34.492 150.48 41.7228 159.104C44.4398 162.344 47.7937 165.68 51.4056 167.919C52.3944 168.532 55.1545 170.024 56.3864 169.826C59.0363 169.36 66.7614 162.319 68.8129 160.445C76.4038 153.511 83.688 146.422 91.8349 140.106C102.642 131.727 115.264 124.388 129.204 123.464L129.731 123.429L130.257 123.464C144.198 124.388 156.819 131.727 167.626 140.106C175.773 146.422 183.057 153.511 190.648 160.445C192.699 162.319 200.424 169.36 203.072 169.826C204.306 170.024 207.066 168.532 208.055 167.919C211.667 165.68 215.021 162.344 217.738 159.104C224.969 150.48 230.515 139.14 232.407 128.025C233.397 122.206 233.427 116.189 232.076 110.424C229.101 97.7208 219.301 89.8245 207.769 84.9553Z" fill="#79BBC2"/>
<path fill-rule="evenodd" clip-rule="evenodd" d="M206.088 88.9377C200.611 86.6247 193.84 84.6828 187.853 83.9364C169.3 88.1927 148.692 88.8494 129.732 88.3797C110.771 88.8494 90.1626 88.1927 71.6105 83.9364C65.6239 84.6828 58.8526 86.6247 53.3747 88.9377C43.1531 93.2543 34.2372 100.128 31.5948 111.409C30.7567 114.987 30.515 118.691 30.7396 122.354C30.8416 124.011 31.0381 125.663 31.3168 127.3C33.0813 137.667 38.2963 148.287 45.0368 156.326C47.4669 159.223 50.4557 162.244 53.6842 164.244C54.1862 164.555 55.1831 165.109 55.9171 165.391C58.45 164.04 64.1011 158.895 65.8985 157.253C73.5517 150.262 80.9824 143.05 89.1876 136.689C100.723 127.746 114.052 120.133 128.92 119.15L129.732 119.096L130.543 119.15C145.411 120.133 158.741 127.746 170.276 136.689C178.481 143.05 185.911 150.262 193.565 157.253C195.362 158.895 201.013 164.04 203.545 165.39C204.28 165.109 205.277 164.555 205.779 164.244C209.007 162.244 211.996 159.223 214.426 156.326C221.167 148.287 226.382 137.667 228.146 127.3C229.039 122.053 229.086 116.608 227.868 111.409C225.226 100.128 216.31 93.2543 206.088 88.9377Z" fill="#F0F9E2"/>
<path fill-rule="evenodd" clip-rule="evenodd" d="M147.994 154.297C143.847 153.92 135.176 166.135 135.176 166.135C147.527 164.24 152.141 154.675 147.994 154.297Z" fill="#58261D"/>
<path fill-rule="evenodd" clip-rule="evenodd" d="M135.328 143.819C133.337 144.565 131.314 144.742 129.731 144.72C128.147 144.742 126.124 144.565 124.133 143.819C119.911 142.235 103.472 134.996 99.25 153.018C99.25 153.018 102.417 161.764 113.049 165.383C113.049 165.383 104.227 156.788 104.679 152.414C104.679 152.414 106.564 146.156 113.652 146.684C119.228 147.099 124.478 149.287 129.731 149.871C134.984 149.287 140.233 147.099 145.81 146.684C152.897 146.156 154.782 152.414 154.782 152.414C155.235 156.788 146.413 165.383 146.413 165.383C157.044 161.764 160.211 153.018 160.211 153.018C155.989 134.996 139.551 142.235 135.328 143.819Z" fill="#58261D"/>
<path fill-rule="evenodd" clip-rule="evenodd" d="M111.463 154.297C107.316 154.675 111.93 164.24 124.281 166.135C124.281 166.135 115.61 153.92 111.463 154.297Z" fill="#58261D"/>
<path fill-rule="evenodd" clip-rule="evenodd" d="M174.388 188.908C181.023 188.908 182.758 191.396 182.758 191.396C177.805 220.714 81.6564 220.714 76.7037 191.396C76.7037 191.396 78.4374 188.908 85.0732 188.908C65.0167 183.781 64.1875 199.464 64.1875 199.464C67.731 193.433 72.783 193.658 72.783 193.658C86.4591 225.907 173.002 225.907 186.678 193.658C186.678 193.658 191.73 193.433 195.274 199.464C195.274 199.464 194.444 183.781 174.388 188.908Z" fill="#58261D"/>
<path fill-rule="evenodd" clip-rule="evenodd" d="M43.6094 147.806C44.9747 149.935 46.4551 151.954 48.0211 153.821C50.176 156.391 52.8231 159.114 55.6826 160.899C56.6707 160.161 57.6834 159.286 58.4475 158.64C60.0861 157.255 61.6849 155.822 63.268 154.375L63.6816 153.998L99.5964 91.791C92.1507 91.2891 84.7371 90.4448 77.4913 89.1219L43.6094 147.806Z" fill="white"/>
<path fill-rule="evenodd" clip-rule="evenodd" d="M198.651 90.349L173.359 134.155C178.837 138.455 183.991 143.125 189.103 147.842L216.723 100.002C213.281 96.8265 209.028 94.4115 204.569 92.5278C202.693 91.7362 200.699 91.0001 198.651 90.349Z" fill="white"/>
<path fill-rule="evenodd" clip-rule="evenodd" d="M129.729 92.2778C125.667 92.3778 121.559 92.4278 117.43 92.4052L98.207 125.7C107.495 120.071 117.656 115.989 128.66 115.262L129.729 115.191L130.796 115.262C134.429 115.501 137.971 116.108 141.419 117.014L155.845 92.0286C147.08 92.4785 138.304 92.4887 129.729 92.2778Z" fill="white"/>
<path fill-rule="evenodd" clip-rule="evenodd" d="M117.043 169.937C117.043 169.937 125.488 182.604 124.432 200.55C124.432 200.55 126.778 201.723 129.732 201.7C132.684 201.723 135.031 200.55 135.031 200.55C133.976 182.604 142.42 169.937 142.42 169.937C132.112 173.946 127.351 173.946 117.043 169.937Z" fill="#DBB36D"/>
<path fill-rule="evenodd" clip-rule="evenodd" d="M132.465 6.75694C132.465 6.75694 172.485 29.0169 173.156 69.8187C177.478 69.2127 181.781 68.4335 186.014 67.3879L186.685 67.2228L187.373 67.2769C189.342 67.4344 191.311 67.7316 193.262 68.0876C190.216 49.871 178.346 16.2795 132.465 6.75694Z" fill="#8C5B3D"/>
<path fill-rule="evenodd" clip-rule="evenodd" d="M227.084 166.942C224.298 170.265 221.088 173.454 217.643 176.088C216.227 177.172 214.673 178.231 213.025 179.149C224.295 216.563 195.824 241.792 195.824 241.792C231.414 222.038 227.72 185.694 227.72 185.694C231.113 187.956 233.526 193.913 233.526 193.913C233.526 181.896 230.248 172.55 227.345 166.628L227.084 166.942Z" fill="#8C5B3D"/>
</svg>
