<svg width="362" height="39" viewBox="0 0 362 39" fill="none" xmlns="http://www.w3.org/2000/svg">
<path d="M9.26438 1.98714V2.52421C8.72732 2.54211 8.31557 2.61372 8.02913 2.73904C7.7606 2.84645 7.58158 3.06128 7.49207 3.38352C7.40256 3.68785 7.3578 4.17121 7.3578 4.83359V18.1528C7.3578 18.7973 7.40256 19.2807 7.49207 19.6029C7.59948 19.9251 7.78745 20.14 8.05599 20.2474C8.32452 20.3548 8.72732 20.4264 9.26438 20.4622V20.9993C8.74522 20.9635 8.07389 20.9456 7.25039 20.9456C6.44479 20.9277 5.62129 20.9187 4.77988 20.9187C3.81317 20.9187 2.90015 20.9277 2.04085 20.9456C1.19945 20.9456 0.519164 20.9635 0 20.9993V20.4622C0.554968 20.4264 0.966718 20.3548 1.23525 20.2474C1.50378 20.14 1.68281 19.9251 1.77232 19.6029C1.86183 19.2807 1.90658 18.7973 1.90658 18.1528V4.83359C1.90658 4.17121 1.86183 3.68785 1.77232 3.38352C1.68281 3.06128 1.49483 2.84645 1.2084 2.73904C0.939865 2.61372 0.537066 2.54211 0 2.52421V1.98714C0.519164 2.00505 1.19945 2.02295 2.04085 2.04085C2.90015 2.05875 3.81317 2.0677 4.77988 2.0677C5.62129 2.0677 6.44479 2.05875 7.25039 2.04085C8.07389 2.02295 8.74522 2.00505 9.26438 1.98714Z" fill="white"/>
<path d="M16.0719 6.68647C16.8596 6.68647 17.5488 6.77598 18.1396 6.955C18.7483 7.11612 19.1869 7.26829 19.4554 7.41151C20.082 7.78745 20.4669 7.55473 20.6101 6.71332H21.1472C21.1114 7.23249 21.0845 7.86801 21.0666 8.61991C21.0487 9.3539 21.0398 10.3296 21.0398 11.5469H20.5027C20.4311 10.8845 20.27 10.2311 20.0193 9.58662C19.7866 8.94214 19.4375 8.40508 18.9721 7.97543C18.5245 7.54577 17.9337 7.33095 17.1997 7.33095C16.7522 7.33095 16.3762 7.46521 16.0719 7.73375C15.7676 8.00228 15.6154 8.36927 15.6154 8.83473C15.6154 9.3718 15.7765 9.85516 16.0988 10.2848C16.421 10.6966 16.8327 11.0994 17.334 11.4932C17.8353 11.8692 18.3365 12.272 18.8378 12.7016C19.3928 13.1492 19.8851 13.5878 20.3147 14.0174C20.7444 14.4471 21.0845 14.9215 21.3351 15.4406C21.6037 15.9419 21.7379 16.5416 21.7379 17.2398C21.7379 18.0454 21.4873 18.7615 20.9861 19.3881C20.5027 20.0146 19.8493 20.507 19.0258 20.865C18.2202 21.2051 17.3161 21.3752 16.3136 21.3752C15.687 21.3752 15.141 21.3036 14.6755 21.1604C14.2101 21.0351 13.8341 20.8829 13.5477 20.7039C13.2613 20.5607 13.0106 20.4533 12.7958 20.3816C12.5989 20.2921 12.402 20.2474 12.205 20.2474C12.026 20.2474 11.8738 20.3458 11.7485 20.5428C11.6232 20.7218 11.5247 20.9366 11.4531 21.1872H10.9161C10.9519 20.6144 10.9787 19.9162 10.9966 19.0927C11.0145 18.2692 11.0235 17.1772 11.0235 15.8166H11.5605C11.668 16.7654 11.8738 17.6068 12.1782 18.3408C12.5004 19.0748 12.9032 19.6566 13.3866 20.0863C13.8878 20.498 14.4607 20.7039 15.1052 20.7039C15.3916 20.7039 15.6512 20.6502 15.8839 20.5428C16.1167 20.4353 16.3046 20.2742 16.4478 20.0594C16.5911 19.8446 16.6627 19.5671 16.6627 19.227C16.6627 18.4393 16.421 17.7769 15.9376 17.2398C15.4722 16.7027 14.8814 16.112 14.1653 15.4675C13.6283 14.9662 13.118 14.4829 12.6347 14.0174C12.1692 13.5341 11.7843 13.0149 11.48 12.4599C11.1757 11.8871 11.0235 11.2515 11.0235 10.5533C11.0235 9.74774 11.2562 9.05851 11.7217 8.48564C12.205 7.91277 12.8316 7.47416 13.6014 7.16983C14.3712 6.84759 15.1947 6.68647 16.0719 6.68647Z" fill="white"/>
<path d="M29.3557 0V18.5019C29.3557 19.2538 29.4631 19.764 29.6779 20.0326C29.9106 20.3011 30.3045 20.4354 30.8595 20.4354V20.9993C30.5014 20.9814 29.9643 20.9635 29.2483 20.9456C28.5322 20.9098 27.7982 20.8919 27.0463 20.8919C26.2944 20.8919 25.5336 20.9098 24.7638 20.9456C23.994 20.9635 23.4121 20.9814 23.0183 20.9993V20.4354C23.5733 20.4354 23.9582 20.3011 24.173 20.0326C24.4057 19.764 24.5221 19.2538 24.5221 18.5019V3.22239C24.5221 2.4168 24.4147 1.82602 24.1998 1.45008C23.985 1.05623 23.5912 0.859305 23.0183 0.859305V0.295387C23.5912 0.349094 24.1461 0.375948 24.6832 0.375948C25.5783 0.375948 26.4108 0.349094 27.1806 0.295387C27.9683 0.223778 28.6933 0.125316 29.3557 0Z" fill="white"/>
<path d="M35.5353 21.1872C34.6939 21.1872 34.0047 21.0261 33.4676 20.7039C32.9305 20.3816 32.5367 19.9609 32.286 19.4418C32.0533 18.9226 31.9369 18.3766 31.9369 17.8037C31.9369 17.0518 32.107 16.4432 32.4472 15.9777C32.7873 15.4943 33.2259 15.1094 33.763 14.823C34.3179 14.5187 34.8998 14.268 35.5084 14.0711C36.1171 13.8742 36.69 13.6862 37.227 13.5072C37.782 13.3103 38.2296 13.0865 38.5697 12.8359C38.9098 12.5673 39.0799 12.2272 39.0799 11.8154V9.4255C39.0799 9.13907 39.0262 8.82578 38.9188 8.48564C38.8293 8.1455 38.6503 7.85011 38.3817 7.59948C38.1132 7.34885 37.7104 7.22353 37.1733 7.22353C36.8869 7.22353 36.6094 7.26829 36.3409 7.3578C36.0903 7.42941 35.8665 7.53682 35.6696 7.68004C36.2961 7.91277 36.7526 8.24396 37.0391 8.67361C37.3255 9.08536 37.4687 9.54187 37.4687 10.0431C37.4687 10.7592 37.2181 11.3231 36.7168 11.7349C36.2156 12.1466 35.6248 12.3525 34.9445 12.3525C34.2284 12.3525 33.6735 12.1287 33.2796 11.6812C32.8858 11.2336 32.6888 10.6787 32.6888 10.0163C32.6888 9.46131 32.8231 8.99585 33.0916 8.61991C33.3781 8.22606 33.7988 7.86801 34.3537 7.54577C34.8908 7.24144 35.5353 7.02661 36.2872 6.90129C37.0391 6.75808 37.8268 6.68647 38.6503 6.68647C39.5275 6.68647 40.342 6.77598 41.0939 6.955C41.8458 7.11612 42.4903 7.47417 43.0274 8.02913C43.4033 8.42298 43.645 8.91529 43.7524 9.50606C43.8598 10.0968 43.9135 10.8577 43.9135 11.7886V18.9853C43.9135 19.4328 43.9404 19.7372 43.9941 19.8983C44.0657 20.0594 44.182 20.14 44.3432 20.14C44.4864 20.14 44.6206 20.0952 44.746 20.0057C44.8892 19.9162 45.0234 19.8267 45.1488 19.7372L45.4173 20.1937C45.0234 20.5338 44.5311 20.7844 43.9404 20.9456C43.3675 21.1067 42.7588 21.1872 42.1143 21.1872C41.3445 21.1872 40.7448 21.0977 40.3152 20.9187C39.9034 20.7218 39.608 20.4712 39.429 20.1668C39.2679 19.8446 39.1784 19.5044 39.1605 19.1464C38.7845 19.7372 38.3101 20.2295 37.7373 20.6233C37.1823 20.9993 36.4483 21.1872 35.5353 21.1872ZM38.0863 19.039C38.2833 19.039 38.4533 19.0121 38.5966 18.9584C38.7577 18.8868 38.9188 18.7615 39.0799 18.5825V12.9164C38.9546 13.1492 38.7845 13.3819 38.5697 13.6146C38.3728 13.8294 38.1669 14.0532 37.9521 14.2859C37.7373 14.5187 37.5314 14.7693 37.3345 15.0378C37.1554 15.3064 37.0033 15.6197 36.8779 15.9777C36.7705 16.3178 36.7168 16.7206 36.7168 17.1861C36.7168 17.8664 36.8421 18.3497 37.0928 18.6362C37.3613 18.9047 37.6925 19.039 38.0863 19.039Z" fill="white"/>
<path d="M56.7829 6.68647C57.6064 6.68647 58.2509 6.79388 58.7164 7.00871C59.1997 7.20563 59.5667 7.45626 59.8174 7.7606C60.0859 8.08284 60.2828 8.51249 60.4081 9.04956C60.5335 9.58662 60.5961 10.3117 60.5961 11.2247V18.5019C60.5961 19.2538 60.7035 19.764 60.9184 20.0326C61.1511 20.3011 61.5449 20.4354 62.0999 20.4354V20.9993C61.7419 20.9814 61.1958 20.9635 60.4618 20.9456C59.7458 20.9098 59.0386 20.8919 58.3404 20.8919C57.5885 20.8919 56.8546 20.9098 56.1385 20.9456C55.4224 20.9635 54.8853 20.9814 54.5273 20.9993V20.4354C54.9927 20.4354 55.315 20.3011 55.494 20.0326C55.673 19.764 55.7625 19.2538 55.7625 18.5019V9.7746C55.7625 9.39865 55.7178 9.08536 55.6283 8.83473C55.5387 8.5841 55.3955 8.39613 55.1986 8.27081C55.0196 8.1455 54.7689 8.08284 54.4467 8.08284C54.1245 8.08284 53.8112 8.1634 53.5068 8.32452C53.2204 8.48564 52.9787 8.71837 52.7818 9.0227C52.6028 9.30914 52.5133 9.64033 52.5133 10.0163V18.5019C52.5133 19.2538 52.6028 19.764 52.7818 20.0326C52.9787 20.3011 53.301 20.4354 53.7485 20.4354V20.9993C53.4084 20.9814 52.9071 20.9635 52.2447 20.9456C51.5824 20.9098 50.9021 20.8919 50.2039 20.8919C49.452 20.8919 48.6912 20.9098 47.9214 20.9456C47.1516 20.9635 46.5697 20.9814 46.1759 20.9993V20.4354C46.7309 20.4354 47.1158 20.3011 47.3306 20.0326C47.5633 19.764 47.6797 19.2538 47.6797 18.5019V9.98942C47.6797 9.18382 47.5723 8.59305 47.3574 8.21711C47.1426 7.82326 46.7488 7.62633 46.1759 7.62633V7.06241C46.7488 7.11612 47.3037 7.14297 47.8408 7.14297C48.7359 7.14297 49.5684 7.11612 50.3382 7.06241C51.1259 6.99081 51.8509 6.89234 52.5133 6.76703V8.70047C52.9429 7.98438 53.5158 7.47416 54.2319 7.16983C54.9659 6.84759 55.8162 6.68647 56.7829 6.68647Z" fill="white"/>
<path d="M76.8155 0V18.0454C76.8155 18.851 76.9229 19.4507 77.1377 19.8446C77.3705 20.2205 77.7643 20.4085 78.3193 20.4085V20.9724C77.7643 20.9187 77.2093 20.8919 76.6544 20.8919C75.7593 20.8919 74.9268 20.9187 74.157 20.9724C73.3872 21.0261 72.6622 21.1246 71.9819 21.2678V3.22239C71.9819 2.4168 71.8745 1.82602 71.6597 1.45008C71.4448 1.05623 71.051 0.859305 70.4781 0.859305V0.295387C71.051 0.349094 71.606 0.375948 72.143 0.375948C73.0381 0.375948 73.8706 0.349094 74.6404 0.295387C75.4281 0.223778 76.1531 0.125316 76.8155 0ZM69.1892 6.68647C69.9769 6.68647 70.6392 6.78493 71.1763 6.98186C71.7134 7.16088 72.1878 7.45626 72.5995 7.86801L72.3041 8.1634C72.0714 7.96648 71.8118 7.82326 71.5254 7.73375C71.239 7.62633 70.9704 7.57263 70.7198 7.57263C69.8963 7.57263 69.2787 8.10074 68.8669 9.15697C68.4552 10.2132 68.2493 11.8333 68.2493 14.0174C68.2493 15.5928 68.3299 16.8191 68.491 17.6963C68.6521 18.5556 68.8669 19.1553 69.1355 19.4955C69.4219 19.8177 69.7262 19.9788 70.0485 19.9788C70.5497 19.9788 70.9973 19.7998 71.3911 19.4418C71.785 19.0658 71.9819 18.6004 71.9819 18.0454V19.3612C71.6239 20.0415 71.1853 20.5517 70.6661 20.8919C70.1469 21.2141 69.4935 21.3752 68.7058 21.3752C67.6854 21.3752 66.7545 21.1246 65.9131 20.6233C65.0896 20.1042 64.4361 19.2986 63.9528 18.2065C63.4694 17.1145 63.2277 15.6913 63.2277 13.9369C63.2277 12.3078 63.4694 10.9651 63.9528 9.90886C64.454 8.83473 65.1522 8.02913 66.0473 7.49207C66.9424 6.955 67.9897 6.68647 69.1892 6.68647Z" fill="white"/>
<path d="M111 1.98714V2.52421C110.588 2.72113 110.158 3.10603 109.711 3.6789C109.263 4.25177 108.86 5.12003 108.502 6.28367L103.991 20.9993C103.776 20.9814 103.543 20.9724 103.293 20.9724C103.06 20.9545 102.818 20.9456 102.568 20.9456C102.335 20.9456 102.093 20.9545 101.843 20.9724C101.61 20.9724 101.386 20.9814 101.171 20.9993L95.532 3.78631C95.3888 3.32086 95.2008 2.99862 94.9681 2.8196C94.7354 2.64057 94.4668 2.54211 94.1625 2.52421V1.98714C94.7712 2.00505 95.4873 2.02295 96.3108 2.04085C97.1343 2.05875 97.9667 2.0677 98.8081 2.0677C99.6495 2.0677 100.437 2.05875 101.171 2.04085C101.923 2.02295 102.523 2.00505 102.97 1.98714V2.52421C102.415 2.54211 101.986 2.61372 101.681 2.73904C101.377 2.84645 101.198 3.06128 101.144 3.38352C101.109 3.68785 101.198 4.15331 101.413 4.77989L105.092 15.9509L104.313 17.5889L107.025 8.91529C107.526 7.322 107.768 6.06884 107.75 5.15583C107.732 4.22492 107.518 3.56254 107.106 3.16869C106.694 2.75694 106.13 2.54211 105.414 2.52421V1.98714C106.094 2.00505 106.694 2.02295 107.213 2.04085C107.75 2.05875 108.323 2.0677 108.932 2.0677C109.29 2.0677 109.657 2.05875 110.033 2.04085C110.409 2.02295 110.731 2.00505 111 1.98714ZM91.5846 1.98714V2.52421C91.2803 2.57792 91.0744 2.73904 90.967 3.00757C90.8775 3.2582 90.8506 3.55359 90.8864 3.89373C90.9401 4.21597 91.0117 4.51135 91.1012 4.77989L95.1561 16.1925L94.4042 17.3472L97.6266 8.61991L98.0025 9.39865L93.894 20.9993C93.6791 20.9814 93.4464 20.9724 93.1958 20.9724C92.9631 20.9545 92.7214 20.9456 92.4707 20.9456C92.238 20.9456 91.9963 20.9545 91.7457 20.9724C91.513 20.9724 91.2892 20.9814 91.0744 20.9993L84.8444 4.24282C84.6117 3.61624 84.3521 3.17764 84.0657 2.92701C83.7792 2.67638 83.5107 2.54211 83.2601 2.52421V1.98714C83.9046 2.00505 84.6564 2.02295 85.5158 2.04085C86.393 2.05875 87.2254 2.0677 88.0131 2.0677C88.8008 2.0677 89.499 2.05875 90.1077 2.04085C90.7163 2.02295 91.2086 2.00505 91.5846 1.98714Z" fill="white"/>
<path d="M116.624 6.68647C118.199 6.68647 119.435 7.15193 120.33 8.08284C121.243 8.99585 121.699 10.5354 121.699 12.7016H113.294L113.241 12.1914H117.779C117.797 11.3142 117.761 10.5086 117.671 9.7746C117.582 9.0227 117.439 8.42298 117.242 7.97543C117.045 7.52787 116.776 7.30409 116.436 7.30409C115.953 7.30409 115.559 7.68899 115.255 8.45879C114.95 9.21068 114.753 10.5086 114.664 12.3525L114.771 12.5673C114.753 12.7464 114.744 12.9254 114.744 13.1044C114.744 13.2834 114.744 13.4714 114.744 13.6683C114.744 14.9215 114.896 15.8971 115.201 16.5953C115.523 17.2935 115.917 17.7769 116.382 18.0454C116.866 18.3139 117.349 18.4482 117.832 18.4482C118.083 18.4482 118.378 18.4124 118.719 18.3408C119.077 18.2692 119.462 18.1081 119.873 17.8574C120.285 17.5889 120.688 17.1861 121.082 16.649L121.538 16.8102C121.323 17.5262 120.974 18.2423 120.491 18.9584C120.025 19.6566 119.417 20.2384 118.665 20.7039C117.913 21.1514 117 21.3752 115.926 21.3752C114.78 21.3752 113.733 21.1425 112.784 20.677C111.853 20.2116 111.11 19.4418 110.555 18.3676C110 17.2935 109.723 15.8524 109.723 14.0443C109.723 12.3257 110.027 10.9293 110.636 9.85516C111.244 8.76312 112.068 7.96648 113.106 7.46521C114.162 6.94605 115.335 6.68647 116.624 6.68647Z" fill="white"/>
<path d="M133.003 6.68647C134.327 6.68647 135.437 7.24144 136.332 8.35137C137.228 9.44341 137.675 11.1352 137.675 13.4266C137.675 15.4496 137.389 17.0429 136.816 18.2065C136.243 19.3702 135.482 20.1937 134.533 20.677C133.584 21.1425 132.546 21.3752 131.418 21.3752C130.81 21.3752 130.255 21.3394 129.753 21.2678C129.252 21.1962 128.769 21.0172 128.303 20.7307L128.599 20.3011C128.831 20.4801 129.091 20.6144 129.377 20.7039C129.664 20.7934 129.932 20.8382 130.183 20.8382C131.024 20.8382 131.642 20.2742 132.036 19.1464C132.448 18.0186 132.654 16.3178 132.654 14.0443C132.654 12.451 132.573 11.2247 132.412 10.3654C132.251 9.50606 132.036 8.91529 131.767 8.59305C131.499 8.25291 131.195 8.08284 130.854 8.08284C130.353 8.08284 129.906 8.26186 129.512 8.61991C129.118 8.97795 128.921 9.44341 128.921 10.0163V8.70047C129.333 8.02018 129.888 7.51892 130.586 7.19668C131.284 6.85654 132.09 6.68647 133.003 6.68647ZM128.921 0V21.053C128.33 20.8023 127.721 20.6681 127.095 20.6502C126.486 20.6323 125.931 20.6949 125.43 20.8382C124.929 20.9814 124.544 21.1783 124.275 21.4289L123.899 21.1604C123.989 20.9098 124.043 20.6681 124.06 20.4354C124.078 20.1847 124.087 19.9341 124.087 19.6835V3.22239C124.087 2.4168 123.98 1.82602 123.765 1.45008C123.55 1.05623 123.156 0.859305 122.584 0.859305V0.295387C123.156 0.349094 123.711 0.375948 124.248 0.375948C125.144 0.375948 125.976 0.349094 126.746 0.295387C127.534 0.223778 128.259 0.125316 128.921 0Z" fill="white"/>
<path d="M154.062 1.98714L160.561 18.7436C160.811 19.3523 161.08 19.7909 161.366 20.0594C161.653 20.31 161.912 20.4443 162.145 20.4622V20.9993C161.501 20.9635 160.749 20.9456 159.889 20.9456C159.03 20.9277 158.153 20.9187 157.258 20.9187C156.345 20.9187 155.486 20.9277 154.68 20.9456C153.874 20.9456 153.23 20.9635 152.747 20.9993V20.4622C153.66 20.4264 154.232 20.2742 154.465 20.0057C154.716 19.7193 154.662 19.1195 154.304 18.2065L150.007 6.31052L150.545 5.37066L146.839 15.011C146.391 16.1746 146.114 17.1145 146.006 17.8306C145.917 18.5288 145.962 19.0658 146.141 19.4418C146.32 19.8177 146.606 20.0773 147 20.2205C147.394 20.3637 147.859 20.4443 148.396 20.4622V20.9993C147.734 20.9635 147.134 20.9456 146.597 20.9456C146.078 20.9277 145.505 20.9187 144.878 20.9187C144.538 20.9187 144.171 20.9277 143.778 20.9456C143.402 20.9456 143.079 20.9635 142.811 20.9993V20.4622C143.223 20.3906 143.625 20.131 144.019 19.6835C144.431 19.218 144.852 18.4303 145.281 17.3204L151.243 1.98714C151.672 2.02295 152.138 2.04085 152.639 2.04085C153.158 2.04085 153.633 2.02295 154.062 1.98714ZM155.002 13.2655V13.8026H147L147.268 13.2655H155.002Z" fill="white"/>
<path d="M168.788 6.79388V23.0938C168.788 23.971 168.994 24.5529 169.406 24.8393C169.818 25.1436 170.382 25.2958 171.098 25.2958V25.8597C170.596 25.8418 169.898 25.815 169.003 25.7792C168.108 25.7613 167.159 25.7523 166.157 25.7523C165.441 25.7523 164.733 25.7613 164.035 25.7792C163.337 25.815 162.809 25.8418 162.451 25.8597V25.2958C163.006 25.2958 163.391 25.1615 163.606 24.893C163.838 24.6245 163.955 24.1143 163.955 23.3624V10.0163C163.955 9.21068 163.847 8.61991 163.632 8.24396C163.418 7.85011 163.024 7.65319 162.451 7.65319V7.08927C163.024 7.14297 163.579 7.16983 164.116 7.16983C165.011 7.16983 165.843 7.14297 166.613 7.08927C167.401 7.01766 168.126 6.9192 168.788 6.79388ZM172.87 6.68647C173.765 6.68647 174.562 6.9371 175.26 7.43836C175.958 7.92172 176.513 8.66466 176.925 9.66718C177.336 10.6518 177.542 11.905 177.542 13.4266C177.542 14.9483 177.372 16.2194 177.032 17.2398C176.71 18.2602 176.253 19.0748 175.663 19.6835C175.09 20.2921 174.427 20.7307 173.676 20.9993C172.924 21.2499 172.127 21.3752 171.286 21.3752C170.677 21.3752 170.095 21.3036 169.54 21.1604C169.003 21.0351 168.555 20.7844 168.197 20.4085L168.466 20.0594C168.609 20.2563 168.797 20.3906 169.03 20.4622C169.263 20.5338 169.495 20.5696 169.728 20.5696C170.39 20.5696 170.928 20.3279 171.339 19.8446C171.751 19.3612 172.046 18.6362 172.225 17.6695C172.422 16.7027 172.521 15.4943 172.521 14.0443C172.521 12.451 172.44 11.2247 172.279 10.3654C172.118 9.50606 171.903 8.91529 171.635 8.59305C171.366 8.25291 171.062 8.08284 170.722 8.08284C170.22 8.08284 169.773 8.26186 169.379 8.61991C168.985 8.97795 168.788 9.44341 168.788 10.0163V8.70047C169.2 8.02018 169.755 7.51892 170.453 7.19668C171.151 6.85654 171.957 6.68647 172.87 6.68647Z" fill="white"/>
<path d="M185.231 6.79388V23.0938C185.231 23.971 185.436 24.5529 185.848 24.8393C186.26 25.1436 186.824 25.2958 187.54 25.2958V25.8597C187.039 25.8418 186.341 25.815 185.445 25.7792C184.55 25.7613 183.602 25.7523 182.599 25.7523C181.883 25.7523 181.176 25.7613 180.478 25.7792C179.779 25.815 179.251 25.8418 178.893 25.8597V25.2958C179.448 25.2958 179.833 25.1615 180.048 24.893C180.281 24.6245 180.397 24.1143 180.397 23.3624V10.0163C180.397 9.21068 180.29 8.61991 180.075 8.24396C179.86 7.85011 179.466 7.65319 178.893 7.65319V7.08927C179.466 7.14297 180.021 7.16983 180.558 7.16983C181.453 7.16983 182.286 7.14297 183.055 7.08927C183.843 7.01766 184.568 6.9192 185.231 6.79388ZM189.312 6.68647C190.207 6.68647 191.004 6.9371 191.702 7.43836C192.4 7.92172 192.955 8.66466 193.367 9.66718C193.779 10.6518 193.985 11.905 193.985 13.4266C193.985 14.9483 193.815 16.2194 193.475 17.2398C193.152 18.2602 192.696 19.0748 192.105 19.6835C191.532 20.2921 190.87 20.7307 190.118 20.9993C189.366 21.2499 188.569 21.3752 187.728 21.3752C187.119 21.3752 186.537 21.3036 185.982 21.1604C185.445 21.0351 184.998 20.7844 184.64 20.4085L184.908 20.0594C185.052 20.2563 185.24 20.3906 185.472 20.4622C185.705 20.5338 185.938 20.5696 186.17 20.5696C186.833 20.5696 187.37 20.3279 187.782 19.8446C188.193 19.3612 188.489 18.6362 188.668 17.6695C188.865 16.7027 188.963 15.4943 188.963 14.0443C188.963 12.451 188.883 11.2247 188.722 10.3654C188.56 9.50606 188.346 8.91529 188.077 8.59305C187.809 8.25291 187.504 8.08284 187.164 8.08284C186.663 8.08284 186.215 8.26186 185.821 8.61991C185.428 8.97795 185.231 9.44341 185.231 10.0163V8.70047C185.642 8.02018 186.197 7.51892 186.896 7.19668C187.594 6.85654 188.399 6.68647 189.312 6.68647Z" fill="white"/>
<path d="M201.055 6.68647C201.843 6.68647 202.532 6.77598 203.123 6.955C203.732 7.11612 204.17 7.26829 204.439 7.41151C205.065 7.78745 205.45 7.55473 205.594 6.71332H206.131C206.095 7.23249 206.068 7.86801 206.05 8.61991C206.032 9.3539 206.023 10.3296 206.023 11.5469H205.486C205.415 10.8845 205.253 10.2311 205.003 9.58662C204.77 8.94214 204.421 8.40508 203.956 7.97543C203.508 7.54577 202.917 7.33095 202.183 7.33095C201.736 7.33095 201.36 7.46521 201.055 7.73375C200.751 8.00228 200.599 8.36927 200.599 8.83473C200.599 9.3718 200.76 9.85516 201.082 10.2848C201.404 10.6966 201.816 11.0994 202.317 11.4932C202.819 11.8692 203.32 12.272 203.821 12.7016C204.376 13.1492 204.869 13.5878 205.298 14.0174C205.728 14.4471 206.068 14.9215 206.319 15.4406C206.587 15.9419 206.721 16.5416 206.721 17.2398C206.721 18.0454 206.471 18.7615 205.97 19.3881C205.486 20.0146 204.833 20.507 204.009 20.865C203.204 21.2051 202.3 21.3752 201.297 21.3752C200.67 21.3752 200.124 21.3036 199.659 21.1604C199.194 21.0351 198.818 20.8829 198.531 20.7039C198.245 20.5607 197.994 20.4533 197.779 20.3816C197.582 20.2921 197.385 20.2474 197.188 20.2474C197.009 20.2474 196.857 20.3458 196.732 20.5428C196.607 20.7218 196.508 20.9366 196.437 21.1872H195.9C195.935 20.6144 195.962 19.9162 195.98 19.0927C195.998 18.2692 196.007 17.1772 196.007 15.8166H196.544C196.651 16.7654 196.857 17.6068 197.162 18.3408C197.484 19.0748 197.887 19.6566 198.37 20.0863C198.871 20.498 199.444 20.7039 200.089 20.7039C200.375 20.7039 200.635 20.6502 200.867 20.5428C201.1 20.4353 201.288 20.2742 201.431 20.0594C201.575 19.8446 201.646 19.5671 201.646 19.227C201.646 18.4393 201.404 17.7769 200.921 17.2398C200.456 16.7027 199.865 16.112 199.149 15.4675C198.612 14.9662 198.102 14.4829 197.618 14.0174C197.153 13.5341 196.768 13.0149 196.463 12.4599C196.159 11.8871 196.007 11.2515 196.007 10.5533C196.007 9.74774 196.24 9.05851 196.705 8.48564C197.188 7.91277 197.815 7.47416 198.585 7.16983C199.355 6.84759 200.178 6.68647 201.055 6.68647Z" fill="white"/>
<path d="M221.231 6.68647C222.628 6.68647 223.836 6.92815 224.856 7.41151C225.895 7.87696 226.7 8.64676 227.273 9.72089C227.846 10.795 228.132 12.2361 228.132 14.0443C228.132 15.8524 227.846 17.2935 227.273 18.3676C226.7 19.4418 225.895 20.2116 224.856 20.677C223.836 21.1425 222.628 21.3752 221.231 21.3752C219.853 21.3752 218.644 21.1425 217.606 20.677C216.568 20.2116 215.762 19.4418 215.189 18.3676C214.616 17.2935 214.33 15.8524 214.33 14.0443C214.33 12.2361 214.616 10.795 215.189 9.72089C215.762 8.64676 216.568 7.87696 217.606 7.41151C218.644 6.92815 219.853 6.68647 221.231 6.68647ZM221.231 7.22353C220.694 7.22353 220.247 7.7606 219.889 8.83473C219.53 9.90886 219.351 11.6454 219.351 14.0443C219.351 16.4432 219.53 18.1797 219.889 19.2538C220.247 20.31 220.694 20.8382 221.231 20.8382C221.768 20.8382 222.216 20.31 222.574 19.2538C222.932 18.1797 223.111 16.4432 223.111 14.0443C223.111 11.6454 222.932 9.90886 222.574 8.83473C222.216 7.7606 221.768 7.22353 221.231 7.22353Z" fill="white"/>
<path d="M236.918 0C237.634 0 238.252 0.0895114 238.771 0.268534C239.29 0.447556 239.747 0.689235 240.141 0.993572C240.391 1.1905 240.615 1.48588 240.812 1.87973C241.027 2.25568 241.134 2.70323 241.134 3.22239C241.134 3.77736 240.928 4.27862 240.516 4.72618C240.105 5.17373 239.568 5.39751 238.905 5.39751C238.171 5.39751 237.581 5.20059 237.133 4.80674C236.703 4.41289 236.488 3.86687 236.488 3.16869C236.488 2.64953 236.641 2.17512 236.945 1.74546C237.249 1.29791 237.715 0.97567 238.341 0.778746C238.288 0.707138 238.198 0.653431 238.073 0.617626C237.965 0.56392 237.813 0.537067 237.616 0.537067C237.312 0.537067 237.061 0.581822 236.864 0.671333C236.668 0.760844 236.497 0.886159 236.354 1.04728C236.193 1.2442 236.068 1.52169 235.978 1.87973C235.889 2.23777 235.844 2.77484 235.844 3.49093V7.08927H238.717V7.62633H235.844V18.2334C235.844 19.1106 236.05 19.7014 236.462 20.0057C236.873 20.2921 237.437 20.4354 238.153 20.4354V20.9993C237.652 20.9814 236.954 20.9635 236.059 20.9456C235.164 20.9098 234.215 20.8919 233.212 20.8919C232.496 20.8919 231.789 20.9098 231.091 20.9456C230.393 20.9635 229.865 20.9814 229.507 20.9993V20.4354C230.062 20.4354 230.446 20.3011 230.661 20.0326C230.894 19.764 231.01 19.2538 231.01 18.5019V7.62633H229.399V7.08927H231.01C231.01 6.03304 231.073 5.15583 231.198 4.45765C231.324 3.75946 231.521 3.16869 231.789 2.68533C232.076 2.18407 232.452 1.73651 232.917 1.34266C233.329 0.984621 233.893 0.671333 234.609 0.4028C235.325 0.134267 236.095 0 236.918 0Z" fill="white"/>
<path d="M263.768 1.98714V2.52421C263.231 2.63162 262.82 2.8196 262.533 3.08813C262.265 3.35666 262.086 3.77736 261.996 4.35023C261.907 4.9052 261.862 5.6929 261.862 6.71332V20.9993C261.593 20.9635 261.298 20.9456 260.976 20.9456C260.671 20.9456 260.34 20.9635 259.982 20.9993L248.086 8.00228V15.736C248.086 16.9355 248.131 17.8574 248.22 18.5019C248.328 19.1285 248.57 19.585 248.945 19.8714C249.339 20.14 249.957 20.3369 250.798 20.4622V20.9993C250.44 20.9635 249.975 20.9456 249.402 20.9456C248.829 20.9277 248.292 20.9187 247.791 20.9187C247.397 20.9187 246.994 20.9277 246.582 20.9456C246.171 20.9456 245.83 20.9635 245.562 20.9993V20.4622C246.117 20.3369 246.529 20.1489 246.797 19.8983C247.066 19.6298 247.245 19.2091 247.334 18.6362C247.424 18.0633 247.469 17.2756 247.469 16.2731V4.83359C247.469 4.17121 247.424 3.68785 247.334 3.38352C247.245 3.06128 247.057 2.84645 246.77 2.73904C246.502 2.61372 246.099 2.54211 245.562 2.52421V1.98714C245.83 2.00505 246.171 2.02295 246.582 2.04085C246.994 2.05875 247.397 2.0677 247.791 2.0677C248.238 2.0677 248.677 2.05875 249.107 2.04085C249.536 2.02295 249.921 2.00505 250.261 1.98714L261.244 13.5878V7.25039C261.244 6.05094 261.191 5.13793 261.083 4.51135C260.994 3.86687 260.761 3.40142 260.385 3.11498C260.009 2.82855 259.391 2.63162 258.532 2.52421V1.98714C258.89 2.00505 259.356 2.02295 259.928 2.04085C260.501 2.05875 261.038 2.0677 261.54 2.0677C261.951 2.0677 262.354 2.05875 262.748 2.04085C263.16 2.02295 263.5 2.00505 263.768 1.98714Z" fill="white"/>
<path d="M271.607 6.68647C273.183 6.68647 274.418 7.15193 275.313 8.08284C276.226 8.99585 276.683 10.5354 276.683 12.7016H268.278L268.224 12.1914H272.762C272.78 11.3142 272.744 10.5086 272.655 9.7746C272.565 9.0227 272.422 8.42298 272.225 7.97543C272.028 7.52787 271.76 7.30409 271.419 7.30409C270.936 7.30409 270.542 7.68899 270.238 8.45879C269.933 9.21068 269.737 10.5086 269.647 12.3525L269.754 12.5673C269.737 12.7464 269.728 12.9254 269.728 13.1044C269.728 13.2834 269.728 13.4714 269.728 13.6683C269.728 14.9215 269.88 15.8971 270.184 16.5953C270.506 17.2935 270.9 17.7769 271.366 18.0454C271.849 18.3139 272.332 18.4482 272.816 18.4482C273.066 18.4482 273.362 18.4124 273.702 18.3408C274.06 18.2692 274.445 18.1081 274.857 17.8574C275.268 17.5889 275.671 17.1861 276.065 16.649L276.521 16.8102C276.307 17.5262 275.958 18.2423 275.474 18.9584C275.009 19.6566 274.4 20.2384 273.648 20.7039C272.896 21.1514 271.983 21.3752 270.909 21.3752C269.763 21.3752 268.716 21.1425 267.767 20.677C266.836 20.2116 266.093 19.4418 265.538 18.3676C264.984 17.2935 264.706 15.8524 264.706 14.0443C264.706 12.3257 265.01 10.9293 265.619 9.85516C266.228 8.76312 267.051 7.96648 268.09 7.46521C269.146 6.94605 270.318 6.68647 271.607 6.68647Z" fill="white"/>
<path d="M284.987 7.06241V7.62633C284.611 7.62633 284.289 7.65319 284.02 7.70689C283.77 7.7427 283.6 7.83221 283.51 7.97543C283.421 8.11864 283.412 8.34242 283.483 8.64676L285.873 16.6222L285.417 17.2398L288.022 7.08927L288.586 7.38465L285.014 20.9993C284.584 20.9635 284.146 20.9456 283.698 20.9456C283.269 20.9456 282.839 20.9635 282.409 20.9993L278.274 9.13012C278.023 8.41403 277.746 7.98438 277.441 7.84116C277.155 7.69794 276.913 7.62633 276.716 7.62633V7.06241C277.432 7.11612 278.175 7.16088 278.945 7.19668C279.715 7.21458 280.565 7.22353 281.496 7.22353C282.051 7.22353 282.633 7.20563 283.242 7.16983C283.868 7.13402 284.45 7.09822 284.987 7.06241ZM298.521 7.06241V7.62633C298.181 7.75165 297.85 7.99333 297.528 8.35137C297.205 8.70942 296.901 9.33599 296.615 10.2311L293.258 20.9993C292.828 20.9635 292.39 20.9456 291.942 20.9456C291.513 20.9456 291.083 20.9635 290.653 20.9993L287.243 11.0904L288.048 7.08927C288.514 7.12507 288.988 7.14297 289.472 7.14297C289.955 7.12507 290.429 7.10717 290.895 7.08927L294.225 17.7769L293.876 17.1861L295.111 13.0776C295.487 11.8423 295.63 10.8398 295.541 10.07C295.451 9.28229 295.209 8.69151 294.815 8.29767C294.422 7.90382 293.938 7.68004 293.365 7.62633V7.06241C293.616 7.08032 293.938 7.09822 294.332 7.11612C294.744 7.13402 295.147 7.15193 295.541 7.16983C295.934 7.16983 296.239 7.16983 296.454 7.16983C296.776 7.16983 297.152 7.16088 297.581 7.14297C298.011 7.12507 298.324 7.09822 298.521 7.06241Z" fill="white"/>
<path d="M319.633 1.96029V2.49736C319.221 2.69428 318.782 3.07023 318.317 3.62519C317.851 4.16226 317.341 4.97681 316.786 6.06884L311.952 15.6555H310.153L303.87 4.02799C303.565 3.45512 303.279 3.06127 303.01 2.84645C302.742 2.63162 302.509 2.52421 302.312 2.52421V1.96029C302.867 2.014 303.44 2.05875 304.031 2.09456C304.639 2.11246 305.302 2.12141 306.018 2.12141C306.931 2.12141 307.916 2.10351 308.972 2.0677C310.046 2.0319 311.031 1.9961 311.926 1.96029V2.52421C311.478 2.52421 311.066 2.54211 310.69 2.57792C310.314 2.61372 310.046 2.70323 309.885 2.84645C309.724 2.97176 309.724 3.20449 309.885 3.54463L313.94 11.3321L312.678 12.997L314.933 8.48564C315.685 6.99976 316.097 5.82716 316.168 4.96786C316.258 4.10855 316.106 3.49093 315.712 3.11498C315.318 2.72113 314.763 2.51526 314.047 2.49736V1.96029C314.727 1.97819 315.327 1.9961 315.846 2.014C316.383 2.0319 316.956 2.04085 317.565 2.04085C317.923 2.04085 318.29 2.0319 318.666 2.014C319.042 1.9961 319.364 1.97819 319.633 1.96029ZM314.289 10.4459V18.1528C314.289 18.7973 314.333 19.2807 314.423 19.6029C314.53 19.9251 314.718 20.14 314.987 20.2474C315.255 20.3548 315.658 20.4264 316.195 20.4622V20.9993C315.676 20.9635 314.987 20.9456 314.128 20.9456C313.268 20.9277 312.418 20.9187 311.577 20.9187C310.664 20.9187 309.777 20.9277 308.918 20.9456C308.077 20.9456 307.414 20.9635 306.931 20.9993V20.4622C307.486 20.4264 307.898 20.3548 308.166 20.2474C308.435 20.14 308.614 19.9251 308.703 19.6029C308.793 19.2807 308.838 18.7973 308.838 18.1528V12.6479L311.765 14.3128L314.289 10.4459Z" fill="white"/>
<path d="M325.13 6.68647C326.527 6.68647 327.735 6.92815 328.756 7.41151C329.794 7.87696 330.599 8.64676 331.172 9.72089C331.745 10.795 332.032 12.2361 332.032 14.0443C332.032 15.8524 331.745 17.2935 331.172 18.3676C330.599 19.4418 329.794 20.2116 328.756 20.677C327.735 21.1425 326.527 21.3752 325.13 21.3752C323.752 21.3752 322.543 21.1425 321.505 20.677C320.467 20.2116 319.661 19.4418 319.088 18.3676C318.515 17.2935 318.229 15.8524 318.229 14.0443C318.229 12.2361 318.515 10.795 319.088 9.72089C319.661 8.64676 320.467 7.87696 321.505 7.41151C322.543 6.92815 323.752 6.68647 325.13 6.68647ZM325.13 7.22353C324.593 7.22353 324.146 7.7606 323.788 8.83473C323.43 9.90886 323.251 11.6454 323.251 14.0443C323.251 16.4432 323.43 18.1797 323.788 19.2538C324.146 20.31 324.593 20.8382 325.13 20.8382C325.667 20.8382 326.115 20.31 326.473 19.2538C326.831 18.1797 327.01 16.4432 327.01 14.0443C327.01 11.6454 326.831 9.90886 326.473 8.83473C326.115 7.7606 325.667 7.22353 325.13 7.22353Z" fill="white"/>
<path d="M343.234 6.68647C343.879 6.68647 344.38 6.82969 344.738 7.11612C345.096 7.38465 345.347 7.73375 345.49 8.1634C345.633 8.57515 345.705 8.9869 345.705 9.39865C345.705 10.2042 345.472 10.8487 345.006 11.3321C344.559 11.7975 343.968 12.0303 343.234 12.0303C342.446 12.0303 341.847 11.8513 341.435 11.4932C341.041 11.1352 340.844 10.6697 340.844 10.0968C340.844 9.48816 340.969 8.9869 341.22 8.59305C341.489 8.1992 341.82 7.86801 342.214 7.59948C341.891 7.59948 341.605 7.66214 341.354 7.78745C341.139 7.87696 340.934 8.00228 340.737 8.1634C340.54 8.32452 340.37 8.51249 340.226 8.72732C340.083 8.92424 339.967 9.14802 339.877 9.39865C339.806 9.64928 339.77 9.90886 339.77 10.1774V18.2334C339.77 19.0927 339.949 19.6745 340.307 19.9788C340.665 20.2832 341.256 20.4354 342.079 20.4354V20.9993C341.668 20.9814 341.05 20.9635 340.226 20.9456C339.421 20.9098 338.588 20.8919 337.729 20.8919C336.924 20.8919 336.109 20.9098 335.285 20.9456C334.462 20.9635 333.844 20.9814 333.433 20.9993V20.4354C333.988 20.4354 334.372 20.3011 334.587 20.0326C334.82 19.764 334.936 19.2538 334.936 18.5019V9.98942C334.936 9.18382 334.829 8.59305 334.614 8.21711C334.399 7.82326 334.005 7.62633 333.433 7.62633V7.06241C334.005 7.11612 334.56 7.14297 335.098 7.14297C335.993 7.14297 336.825 7.11612 337.595 7.06241C338.383 6.99081 339.108 6.89234 339.77 6.76703V8.70047C340.003 8.23501 340.289 7.85906 340.629 7.57263C340.969 7.26829 341.354 7.04451 341.784 6.90129C342.232 6.75808 342.715 6.68647 343.234 6.68647Z" fill="white"/>
<path d="M351.831 0V18.5019C351.831 19.2538 351.939 19.764 352.153 20.0326C352.386 20.3011 352.78 20.4354 353.335 20.4354V20.9993C352.977 20.9814 352.44 20.9635 351.724 20.9456C351.008 20.9098 350.274 20.8919 349.522 20.8919C348.77 20.8919 348.009 20.9098 347.239 20.9456C346.469 20.9635 345.888 20.9814 345.494 20.9993V20.4354C346.049 20.4354 346.434 20.3011 346.648 20.0326C346.881 19.764 346.998 19.2538 346.998 18.5019V3.22239C346.998 2.4168 346.89 1.82602 346.675 1.45008C346.46 1.05623 346.067 0.859305 345.494 0.859305V0.295387C346.067 0.349094 346.622 0.375948 347.159 0.375948C348.054 0.375948 348.886 0.349094 349.656 0.295387C350.444 0.223778 351.169 0.125316 351.831 0ZM360.746 7.06241V7.59948C360.102 7.7785 359.448 8.09179 358.786 8.53935C358.124 8.9869 357.452 9.55082 356.772 10.2311L355.832 11.171L356.02 10.8219L360.344 19.039C360.487 19.3075 360.639 19.576 360.8 19.8446C360.961 20.0952 361.167 20.2921 361.418 20.4354V20.9993C361.113 20.9814 360.648 20.9635 360.021 20.9456C359.413 20.9098 358.795 20.8919 358.168 20.8919C357.452 20.8919 356.727 20.9098 355.993 20.9456C355.277 20.9635 354.74 20.9814 354.382 20.9993V20.4354C354.74 20.4354 354.973 20.3548 355.08 20.1937C355.206 20.0326 355.197 19.8088 355.053 19.5223L352.69 14.5276C352.565 14.277 352.422 14.1159 352.261 14.0443C352.1 13.9727 351.912 13.9369 351.697 13.9369V13.4266C351.947 13.4266 352.18 13.4087 352.395 13.3729C352.61 13.3192 352.807 13.2029 352.986 13.0238L355.053 11.0904C355.68 10.5175 355.993 9.98047 355.993 9.47921C356.011 8.96005 355.814 8.53039 355.403 8.19025C355.009 7.85011 354.49 7.65319 353.845 7.59948V7.06241C354.364 7.08032 354.919 7.09822 355.51 7.11612C356.119 7.13402 356.638 7.14297 357.067 7.14297C357.443 7.14297 357.873 7.14297 358.356 7.14297C358.84 7.12507 359.296 7.11612 359.726 7.11612C360.174 7.09822 360.514 7.08032 360.746 7.06241Z" fill="white"/>
<path d="M48.7906 38.9015H46.3844V32.3916H48.7875C49.4507 32.3916 50.0218 32.5219 50.5008 32.7825C50.9818 33.0411 51.3526 33.414 51.6133 33.9014C51.8739 34.3867 52.0043 34.9673 52.0043 35.6433C52.0043 36.3214 51.8739 36.9042 51.6133 37.3916C51.3548 37.879 50.985 38.253 50.5039 38.5137C50.0229 38.7722 49.4518 38.9015 48.7906 38.9015ZM47.9578 37.5601H48.7302C49.0947 37.5601 49.4031 37.4986 49.6552 37.3757C49.9095 37.2507 50.1013 37.0483 50.2306 36.7686C50.362 36.4867 50.4276 36.1117 50.4276 35.6433C50.4276 35.175 50.362 34.8021 50.2306 34.5244C50.0992 34.2447 49.9053 34.0434 49.6489 33.9205C49.3946 33.7955 49.081 33.733 48.708 33.733H47.9578V37.5601Z" fill="white"/>
<path d="M57.3984 38.9015V32.3916H61.9376V33.6694H58.9719V35.0044H61.7055V36.2854H58.9719V37.6236H61.9376V38.9015H57.3984Z" fill="white"/>
<path d="M70.9173 34.3433C70.8961 34.1102 70.8018 33.929 70.6344 33.7997C70.4691 33.6683 70.2328 33.6026 69.9255 33.6026C69.7221 33.6026 69.5526 33.6291 69.4169 33.6821C69.2813 33.7351 69.1796 33.8082 69.1118 33.9014C69.044 33.9926 69.009 34.0975 69.0069 34.2161C69.0026 34.3136 69.0217 34.3994 69.0641 34.4736C69.1086 34.5478 69.1722 34.6135 69.2548 34.6707C69.3396 34.7258 69.4413 34.7745 69.56 34.8169C69.6786 34.8593 69.8121 34.8964 69.9605 34.9281L70.5199 35.0553C70.842 35.1252 71.126 35.2185 71.3718 35.335C71.6197 35.4516 71.8274 35.5904 71.9948 35.7514C72.1644 35.9125 72.2926 36.0979 72.3794 36.3077C72.4663 36.5175 72.5108 36.7527 72.5129 37.0133C72.5108 37.4244 72.407 37.7773 72.2014 38.0718C71.9959 38.3664 71.7003 38.5921 71.3146 38.7489C70.931 38.9057 70.468 38.9841 69.9255 38.9841C69.3809 38.9841 68.9062 38.9025 68.5015 38.7393C68.0967 38.5762 67.782 38.3282 67.5574 37.9955C67.3328 37.6628 67.2173 37.2422 67.2109 36.7336H68.7176C68.7303 36.9434 68.7865 37.1182 68.8861 37.2581C68.9857 37.398 69.1224 37.5039 69.2961 37.576C69.472 37.648 69.6755 37.684 69.9064 37.684C70.1184 37.684 70.2985 37.6554 70.4468 37.5982C70.5973 37.541 70.7128 37.4615 70.7933 37.3598C70.8738 37.2581 70.9151 37.1415 70.9173 37.0102C70.9151 36.8872 70.877 36.7824 70.8028 36.6955C70.7287 36.6065 70.6142 36.5302 70.4595 36.4666C70.307 36.4009 70.112 36.3405 69.8747 36.2854L69.1944 36.1265C68.6307 35.9972 68.1868 35.7885 67.8626 35.5003C67.5383 35.21 67.3773 34.8179 67.3794 34.3242C67.3773 33.9216 67.4854 33.5687 67.7036 33.2657C67.9219 32.9627 68.2239 32.7264 68.6096 32.5569C68.9952 32.3873 69.4349 32.3026 69.9287 32.3026C70.433 32.3026 70.8706 32.3884 71.2415 32.56C71.6144 32.7296 71.9037 32.968 72.1093 33.2752C72.3148 33.5825 72.4197 33.9385 72.4239 34.3433H70.9173Z" fill="white"/>
<path d="M79.3566 32.3916V38.9015H77.7832V32.3916H79.3566Z" fill="white"/>
<path d="M89.092 34.5181C89.056 34.3846 89.003 34.267 88.9331 34.1653C88.8632 34.0614 88.7773 33.9735 88.6756 33.9014C88.5739 33.8294 88.4573 33.7753 88.326 33.7393C88.1946 33.7012 88.0505 33.6821 87.8937 33.6821C87.5779 33.6821 87.3046 33.7584 87.0736 33.911C86.8447 34.0635 86.6678 34.2861 86.5427 34.5785C86.4177 34.8688 86.3552 35.2216 86.3552 35.637C86.3552 36.0544 86.4156 36.4105 86.5364 36.705C86.6572 36.9996 86.832 37.2242 87.0609 37.3789C87.2897 37.5336 87.5673 37.6109 87.8937 37.6109C88.1819 37.6109 88.4256 37.5643 88.6248 37.4711C88.8261 37.3757 88.9786 37.2411 89.0825 37.0674C89.1863 36.8936 89.2382 36.6891 89.2382 36.4539L89.5307 36.4889H87.9477V35.3414H90.7545V36.2028C90.7545 36.7855 90.6305 37.2846 90.3825 37.6999C90.1367 38.1153 89.7977 38.4342 89.3654 38.6567C88.9352 38.8792 88.4404 38.9905 87.8809 38.9905C87.2601 38.9905 86.7144 38.8559 86.2439 38.5868C85.7735 38.3176 85.4069 37.9341 85.1441 37.4361C84.8814 36.936 84.75 36.3426 84.75 35.6561C84.75 35.122 84.8294 34.6484 84.9884 34.2352C85.1473 33.8198 85.3688 33.4681 85.6527 33.1799C85.9388 32.8917 86.2694 32.6734 86.6445 32.5251C87.0217 32.3767 87.4275 32.3026 87.8619 32.3026C88.2391 32.3026 88.5898 32.3566 88.914 32.4647C89.2404 32.5728 89.5286 32.7253 89.7786 32.9224C90.0308 33.1195 90.2353 33.3536 90.3921 33.6249C90.5489 33.8961 90.6464 34.1939 90.6845 34.5181H89.092Z" fill="white"/>
<path d="M101.698 32.3916V38.9015H100.363L97.7721 35.1443H97.7308V38.9015H96.1574V32.3916H97.5115L100.073 36.1424H100.128V32.3916H101.698Z" fill="white"/>
<path d="M115.608 39C115.151 39 114.755 38.9184 114.423 38.7552C114.092 38.5921 113.838 38.3727 113.66 38.0973C113.482 37.8197 113.393 37.5113 113.393 37.1723C113.393 36.9222 113.442 36.7018 113.539 36.5111C113.639 36.3183 113.775 36.1413 113.949 35.9803C114.125 35.8171 114.329 35.6571 114.563 35.5003L115.929 34.6262C116.084 34.5287 116.193 34.4259 116.257 34.3178C116.322 34.2098 116.355 34.1017 116.355 33.9936C116.355 33.8771 116.31 33.7711 116.219 33.6757C116.13 33.5804 115.997 33.5338 115.821 33.5359C115.709 33.5359 115.612 33.5592 115.529 33.6058C115.446 33.6524 115.382 33.715 115.335 33.7934C115.291 33.8718 115.268 33.9608 115.268 34.0604C115.268 34.1896 115.305 34.3221 115.38 34.4577C115.454 34.5933 115.553 34.7374 115.678 34.89C115.805 35.0426 115.946 35.211 116.101 35.3954L119.219 38.9015H117.636L115.027 36.0693C114.878 35.904 114.723 35.7186 114.559 35.513C114.396 35.3075 114.258 35.0828 114.146 34.8391C114.034 34.5933 113.978 34.3263 113.978 34.0381C113.978 33.7139 114.054 33.4204 114.207 33.1576C114.359 32.8949 114.573 32.6861 114.849 32.5314C115.126 32.3746 115.449 32.2962 115.818 32.2962C116.174 32.2962 116.481 32.3693 116.74 32.5155C116.999 32.6618 117.198 32.8557 117.338 33.0972C117.477 33.3388 117.547 33.6037 117.547 33.8919C117.547 34.197 117.472 34.4778 117.322 34.7342C117.171 34.9885 116.958 35.2142 116.683 35.4113L115.345 36.3681C115.203 36.4698 115.091 36.5789 115.011 36.6955C114.93 36.8099 114.89 36.9349 114.89 37.0706C114.89 37.2104 114.923 37.3323 114.989 37.4361C115.056 37.5399 115.152 37.6215 115.275 37.6809C115.398 37.7402 115.542 37.7699 115.707 37.7699C115.927 37.7699 116.148 37.7179 116.368 37.6141C116.588 37.5081 116.79 37.3598 116.972 37.1691C117.154 36.9763 117.3 36.7484 117.411 36.4857C117.521 36.2208 117.576 35.9305 117.576 35.6147H118.828C118.828 36.0046 118.787 36.367 118.704 36.7018C118.622 37.0345 118.498 37.3333 118.332 37.5982C118.169 37.861 117.967 38.0792 117.725 38.253C117.649 38.2954 117.575 38.3357 117.503 38.3738C117.431 38.4119 117.357 38.4522 117.28 38.4946C117.03 38.6747 116.759 38.804 116.467 38.8824C116.176 38.9608 115.89 39 115.608 39Z" fill="white"/>
<path d="M132.978 38.9015H130.572V32.3916H132.975C133.638 32.3916 134.209 32.5219 134.688 32.7825C135.169 33.0411 135.54 33.414 135.801 33.9014C136.061 34.3867 136.192 34.9673 136.192 35.6433C136.192 36.3214 136.061 36.9042 135.801 37.3916C135.542 37.879 135.172 38.253 134.691 38.5137C134.21 38.7722 133.639 38.9015 132.978 38.9015ZM132.145 37.5601H132.918C133.282 37.5601 133.591 37.4986 133.843 37.3757C134.097 37.2507 134.289 37.0483 134.418 36.7686C134.549 36.4867 134.615 36.1117 134.615 35.6433C134.615 35.175 134.549 34.8021 134.418 34.5244C134.287 34.2447 134.093 34.0434 133.836 33.9205C133.582 33.7955 133.268 33.733 132.895 33.733H132.145V37.5601Z" fill="white"/>
<path d="M141.586 38.9015V32.3916H146.125V33.6694H143.159V35.0044H145.893V36.2854H143.159V37.6236H146.125V38.9015H141.586Z" fill="white"/>
<path d="M153.064 32.3916L154.52 37.1596H154.574L156.03 32.3916H157.791L155.594 38.9015H153.5L151.303 32.3916H153.064Z" fill="white"/>
<path d="M162.967 38.9015V32.3916H167.506V33.6694H164.541V35.0044H167.274V36.2854H164.541V37.6236H167.506V38.9015H162.967Z" fill="white"/>
<path d="M172.967 38.9015V32.3916H174.541V37.6236H177.249V38.9015H172.967Z" fill="white"/>
<path d="M188.43 35.6465C188.43 36.3628 188.292 36.9699 188.017 37.4679C187.741 37.9659 187.368 38.3441 186.898 38.6027C186.429 38.8612 185.904 38.9905 185.321 38.9905C184.736 38.9905 184.21 38.8601 183.741 38.5995C183.273 38.3388 182.901 37.9606 182.626 37.4647C182.352 36.9667 182.216 36.3607 182.216 35.6465C182.216 34.9303 182.352 34.3231 182.626 33.8251C182.901 33.3272 183.273 32.9489 183.741 32.6904C184.21 32.4318 184.736 32.3026 185.321 32.3026C185.904 32.3026 186.429 32.4318 186.898 32.6904C187.368 32.9489 187.741 33.3272 188.017 33.8251C188.292 34.3231 188.43 34.9303 188.43 35.6465ZM186.821 35.6465C186.821 35.2227 186.761 34.8646 186.64 34.5721C186.522 34.2797 186.35 34.0582 186.125 33.9078C185.903 33.7573 185.635 33.6821 185.321 33.6821C185.01 33.6821 184.741 33.7573 184.517 33.9078C184.292 34.0582 184.12 34.2797 183.999 34.5721C183.88 34.8646 183.821 35.2227 183.821 35.6465C183.821 36.0703 183.88 36.4285 183.999 36.7209C184.12 37.0133 184.292 37.2348 184.517 37.3852C184.741 37.5357 185.01 37.6109 185.321 37.6109C185.635 37.6109 185.903 37.5357 186.125 37.3852C186.35 37.2348 186.522 37.0133 186.64 36.7209C186.761 36.4285 186.821 36.0703 186.821 35.6465Z" fill="white"/>
<path d="M193.824 38.9015V32.3916H196.513C197 32.3916 197.421 32.4869 197.775 32.6777C198.131 32.8663 198.405 33.1301 198.598 33.4691C198.791 33.8061 198.888 34.1981 198.888 34.6452C198.888 35.0945 198.789 35.4876 198.592 35.8245C198.397 36.1593 198.118 36.4189 197.756 36.6033C197.394 36.7877 196.963 36.8798 196.465 36.8798H194.806V35.6402H196.173C196.41 35.6402 196.608 35.5988 196.767 35.5162C196.928 35.4335 197.05 35.3181 197.133 35.1697C197.216 35.0193 197.257 34.8444 197.257 34.6452C197.257 34.4439 197.216 34.2702 197.133 34.1239C197.05 33.9756 196.928 33.8612 196.767 33.7806C196.606 33.7001 196.408 33.6599 196.173 33.6599H195.397V38.9015H193.824Z" fill="white"/>
<path d="M204.139 32.3916H206.087L207.74 36.4221H207.816L209.469 32.3916H211.418V38.9015H209.886V34.9027H209.832L208.268 38.8601H207.289L205.725 34.8805H205.671V38.9015H204.139V32.3916Z" fill="white"/>
<path d="M216.875 38.9015V32.3916H221.414V33.6694H218.448V35.0044H221.182V36.2854H218.448V37.6236H221.414V38.9015H216.875Z" fill="white"/>
<path d="M232.415 32.3916V38.9015H231.08L228.49 35.1443H228.448V38.9015H226.875V32.3916H228.229L230.791 36.1424H230.845V32.3916H232.415Z" fill="white"/>
<path d="M237.667 33.6694V32.3916H243.169V33.6694H241.195V38.9015H239.644V33.6694H237.667Z" fill="white"/>
<path d="M256.22 38.9015H254.529L256.726 32.3916H258.82L261.017 38.9015H259.326L257.797 34.0318H257.746L256.22 38.9015ZM255.994 36.3395H259.529V37.5346H255.994V36.3395Z" fill="white"/>
<path d="M270.159 34.5181C270.123 34.3846 270.07 34.267 270 34.1653C269.931 34.0614 269.845 33.9735 269.743 33.9014C269.641 33.8294 269.525 33.7753 269.393 33.7393C269.262 33.7012 269.118 33.6821 268.961 33.6821C268.645 33.6821 268.372 33.7584 268.141 33.911C267.912 34.0635 267.735 34.2861 267.61 34.5785C267.485 34.8688 267.423 35.2216 267.423 35.637C267.423 36.0544 267.483 36.4105 267.604 36.705C267.725 36.9996 267.899 37.2242 268.128 37.3789C268.357 37.5336 268.635 37.6109 268.961 37.6109C269.249 37.6109 269.493 37.5643 269.692 37.4711C269.893 37.3757 270.046 37.2411 270.15 37.0674C270.254 36.8936 270.306 36.6891 270.306 36.4539L270.598 36.4889H269.015V35.3414H271.822V36.2028C271.822 36.7855 271.698 37.2846 271.45 37.6999C271.204 38.1153 270.865 38.4342 270.433 38.6567C270.003 38.8792 269.508 38.9905 268.948 38.9905C268.327 38.9905 267.782 38.8559 267.311 38.5868C266.841 38.3176 266.474 37.9341 266.211 37.4361C265.949 36.936 265.817 36.3426 265.817 35.6561C265.817 35.122 265.897 34.6484 266.056 34.2352C266.215 33.8198 266.436 33.4681 266.72 33.1799C267.006 32.8917 267.337 32.6734 267.712 32.5251C268.089 32.3767 268.495 32.3026 268.929 32.3026C269.306 32.3026 269.657 32.3566 269.981 32.4647C270.308 32.5728 270.596 32.7253 270.846 32.9224C271.098 33.1195 271.303 33.3536 271.459 33.6249C271.616 33.8961 271.714 34.1939 271.752 34.5181H270.159Z" fill="white"/>
<path d="M277.225 38.9015V32.3916H281.764V33.6694H278.798V35.0044H281.532V36.2854H278.798V37.6236H281.764V38.9015H277.225Z" fill="white"/>
<path d="M292.765 32.3916V38.9015H291.43L288.84 35.1443H288.798V38.9015H287.225V32.3916H288.579L291.141 36.1424H291.195V32.3916H292.765Z" fill="white"/>
<path d="M304.139 34.7501H302.55C302.529 34.587 302.485 34.4397 302.42 34.3083C302.354 34.1769 302.267 34.0646 302.159 33.9714C302.051 33.8781 301.923 33.8071 301.774 33.7584C301.628 33.7075 301.466 33.6821 301.288 33.6821C300.972 33.6821 300.7 33.7595 300.471 33.9141C300.244 34.0688 300.069 34.2924 299.947 34.5848C299.826 34.8773 299.765 35.2312 299.765 35.6465C299.765 36.0788 299.827 36.4412 299.95 36.7336C300.075 37.0239 300.25 37.2433 300.474 37.3916C300.701 37.5378 300.969 37.6109 301.278 37.6109C301.452 37.6109 301.61 37.5887 301.752 37.5442C301.896 37.4997 302.022 37.435 302.13 37.3503C302.241 37.2634 302.331 37.1585 302.4 37.0356C302.473 36.9106 302.522 36.7696 302.55 36.6128L304.139 36.6224C304.112 36.9106 304.028 37.1945 303.888 37.4742C303.75 37.754 303.561 38.0093 303.319 38.2403C303.078 38.4692 302.783 38.6514 302.435 38.787C302.09 38.9227 301.694 38.9905 301.247 38.9905C300.658 38.9905 300.13 38.8612 299.664 38.6027C299.2 38.342 298.833 37.9627 298.564 37.4647C298.295 36.9667 298.16 36.3607 298.16 35.6465C298.16 34.9303 298.297 34.3231 298.57 33.8251C298.844 33.3272 299.213 32.9489 299.68 32.6904C300.146 32.4318 300.668 32.3026 301.247 32.3026C301.641 32.3026 302.005 32.3577 302.34 32.4679C302.675 32.5759 302.969 32.7349 303.224 32.9447C303.478 33.1523 303.685 33.4077 303.844 33.7107C304.003 34.0137 304.101 34.3602 304.139 34.7501Z" fill="white"/>
<path d="M309.191 32.3916H310.949L312.325 35.1157H312.382L313.759 32.3916H315.516L313.136 36.7273V38.9015H311.572V36.7273L309.191 32.3916Z" fill="white"/>
</svg>
